<?xml version="1.0" encoding="UTF-8"?>
<svg xmlns="http://www.w3.org/2000/svg" xmlns:xlink="http://www.w3.org/1999/xlink" width="32" height="32"
  viewBox="0 0 32 32" fill="none">
  <g opacity="1" transform="translate(0 0)  rotate(0)">
    <mask id="bg-mask-0" fill="white">
      <use transform="translate(0 0)  rotate(0)" xlink:href="#path_0"></use>
    </mask>
    <g mask="url(#bg-mask-0)">
      <path id="路径 1" fill-rule="evenodd" style="fill:#575757" opacity="1"
        d="M28.5033,15.3361v0c0.01,0 0.01,0 0.01,0c0.01,0 0.01,0 0.01,0h0.01c0,0 0,0 0.01,0c0,0 0,0 0.01,0c0,0.01 0,0.01 0,0.01c0.01,0 0.01,0 0.01,0h0.01c0,0 0,0.01 0.01,0.01v0c0,0 0.01,0 0.01,0.01c0,0 0,0 0.01,0c0,0 0,0 0,0.01h0.01c0,0 0,0 0,0.01c0.01,0 0.01,0 0.01,0c0,0 0,0.01 0.01,0.01v0c0,0.01 0,0.01 0.01,0.01v0.01c0,0 0,0 0,0.01h0.01c0,0.01 0,0.01 0,0.01v0.01c0,0 0.01,0 0.01,0.01v0c0,0.01 0,0.01 0,0.01v0.01c0,0 0,0 0,0.01c0,0 0,0 0,0.01v0v12.62c0,0 0,0 0,0.01v0c0,0.01 0,0.01 0,0.01v0.01v0.01c0,0 0,0 0,0.01h-0.01c0,0.01 0,0.01 0,0.01v0.01c0,0 -0.01,0 -0.01,0.01v0c0,0.01 0,0.01 0,0.01c-0.01,0 -0.01,0 -0.01,0.01v0c-0.01,0.01 -0.01,0.01 -0.01,0.01c0,0 0,0 -0.01,0.01v0c0,0 -0.01,0 -0.01,0.01v0c-0.01,0 -0.01,0 -0.01,0.01h-0.01v0c-0.01,0.01 -0.01,0.01 -0.01,0.01h-0.01c0,0 0,0 -0.01,0c0,0.01 0,0.01 0,0.01c-0.01,0 -0.01,0 -0.01,0c-0.01,0 -0.01,0 -0.01,0h-0.01c0,0 0,0 -0.01,0c0,0 0,0 -0.01,0v0h-24.99997c-0.01,0 -0.01,0 -0.01,0h-0.01h-0.01c0,0 0,0 -0.01,0v0c-0.01,0 -0.01,0 -0.01,0c0,0 -0.01,0 -0.01,-0.01c0,0 0,0 -0.01,0v0c-0.01,0 -0.01,0 -0.01,-0.01h-0.01c0,0 0,0 -0.01,0c0,-0.01 0,-0.01 0,-0.01h-0.01c0,-0.01 0,-0.01 -0.01,-0.01v0c0,-0.01 -0.01,-0.01 -0.01,-0.01c0,0 0,0 0,-0.01h-0.01c0,-0.01 0,-0.01 0,-0.01c0,0 0,0 -0.01,-0.01v0c0,-0.01 0,-0.01 0,-0.01c-0.01,0 -0.01,-0.01 -0.01,-0.01c0,0 0,0 0,-0.01v0c0,-0.01 0,-0.01 -0.01,-0.01v-0.01v-0.01c0,0 0,0 0,-0.01v0c0,-0.01 0,-0.01 0,-0.01v-17.78c0,-0.01 0,-0.01 0,-0.01v-0.01c0,0 0,0 0,-0.01c0,0 0,0 0,-0.01v0c0.01,-0.01 0.01,-0.01 0.01,-0.01v-0.01c0,0 0,0 0,-0.01c0,0 0,0 0.01,0c0,-0.01 0,-0.01 0,-0.01v-0.01c0.01,0 0.01,0 0.01,-0.01v0l0.01,-0.01v0c0,-0.01 0.01,-0.01 0.01,-0.01c0,0 0,0 0,-0.01c0.01,0 0.01,0 0.01,0c0,0 0.01,0 0.01,-0.01v0c0.01,0 0.01,0 0.01,-0.01h0.01c0,0 0,0 0.01,0v-0.01c0.01,0 0.01,0 0.01,0h0.01c0,0 0,0 0.01,0c0,-0.01 0,-0.01 0,-0.01c0.01,0 0.01,0 0.01,0h0.01h0.01c0,0 0,0 0.01,0h13.13997c0,0 0,0 0.01,0v0c0.01,0 0.01,0 0.01,0c0.01,0 0.01,0 0.01,0c0,0 0.01,0 0.01,0.01c0,0 0,0 0.01,0v0c0.01,0 0.01,0 0.01,0l0.01,0.01c0,0 0,0 0.01,0v0c0.01,0.01 0.01,0.01 0.01,0.01h0.01c0,0.01 0,0.01 0,0.01c0.01,0 0.01,0 0.01,0c0,0.01 0,0.01 0.01,0.01c0,0 0,0 0,0.01h0.01v0.01h0.01c0,0.01 0,0.01 0,0.01c0,0 0,0.01 0.01,0.01c0,0 0,0 0,0.01v0c0,0.01 0,0.01 0.01,0.01v0.01c0,0 0,0 0,0.01v0c0,0.01 0,0.01 0,0.01c0,0.01 0,0.01 0,0.01v0.01c0,0 0,0 0,0.01v4.83l0.01,0.01c0,0 0,0 0,0.01c0,0 0,0 0,0.01v0c0,0.01 0,0.01 0,0.01v0.01c0,0 0,0 0,0.01c0.01,0 0.01,0 0.01,0c0,0.01 0,0.01 0,0.01v0.01c0.01,0 0.01,0 0.01,0.01v0c0,0.01 0.01,0.01 0.01,0.01c0,0 0,0 0,0.01h0.01v0.01c0.01,0 0.01,0 0.01,0c0,0.01 0,0.01 0.01,0.01v0c0,0.01 0.01,0.01 0.01,0.01c0,0 0,0 0.01,0v0.01c0.01,0 0.01,0 0.01,0h0.01c0,0.01 0,0.01 0.01,0.01v0c0.01,0 0.01,0 0.01,0h0.01c0,0 0,0.01 0.01,0.01c0,0 0,0 0.01,0v0c0.01,0 0.01,0 0.01,0h1.51h0.01h0.01c0,0 0,0 0.01,0v-0.01c0.01,0 0.01,0 0.01,0h0.01h0.01c0,0 0,0 0.01,-0.01v0c0.01,0 0.01,0 0.01,0l0.01,-0.01v0c0.01,0 0.01,0 0.01,-0.01h0.01c0,0 0,0 0,-0.01c0.01,0 0.01,0 0.01,0c0,0 0,-0.01 0.01,-0.01v0c0,-0.01 0,-0.01 0.01,-0.01c0,0 0,0 0,-0.01v0c0.01,-0.01 0.01,-0.01 0.01,-0.01v-0.01c0,0 0,0 0.01,-0.01v0c0,-0.01 0,-0.01 0,-0.01v-0.01c0,0 0,0 0.01,-0.01v0c0,-0.01 0,-0.01 0,-0.01c0,-0.01 0,-0.01 0,-0.01v-0.01v-7.96004c0,0 0,0 0,-0.01v0c0,-0.01 0,-0.01 0,-0.01v-0.01v-0.01c0,0 0,0 0.01,-0.01v0c0,-0.01 0,-0.01 0,-0.01v-0.01c0.01,0 0.01,0 0.01,-0.01v0c0,-0.01 0,-0.01 0.01,-0.01c0,0 0,0 0,-0.01c0,0 0,0 0.01,0c0,-0.01 0,-0.01 0,-0.01c0,0 0.01,0 0.01,-0.01v0c0.01,0 0.01,0 0.01,-0.01c0,0 0,0 0.01,0c0,0 0,0 0,-0.01h0.01c0,0 0,0 0.01,0c0,-0.01 0,-0.01 0,-0.01c0.01,0 0.01,0 0.01,0h0.01c0,-0.01 0,-0.01 0.01,-0.01v0c0.01,0 0.01,0 0.01,0c0.01,0 0.01,0 0.01,0h0.01c0,0 0,0 0.01,0v0h5.84c0,0 0,0 0.01,0v0c0.01,0 0.01,0 0.01,0c0.01,0 0.01,0 0.01,0h0.01c0,0 0,0 0.01,0c0,0 0,0 0,0.01c0.01,0 0.01,0 0.01,0h0.01c0,0 0,0 0.01,0.01v0c0.01,0 0.01,0 0.01,0c0,0.01 0.01,0.01 0.01,0.01v0c0.01,0.01 0.01,0.01 0.01,0.01c0,0 0,0 0.01,0c0,0.01 0,0.01 0,0.01c0,0 0.01,0 0.01,0.01v0c0,0.01 0.01,0.01 0.01,0.01c0,0 0,0 0,0.01c0,0 0,0 0.01,0c0,0.01 0,0.01 0,0.01v0.01c0,0 0,0 0.01,0.01v0c0,0.01 0,0.01 0,0.01v0.01v0.01c0,0 0,0 0,0.01v0c0,0.01 0.01,0.01 0.01,0.01v7.96004v0.01c0,0 0,0 0,0.01c0,0 0,0 0,0.01v0c0,0.01 0,0.01 0,0.01v0.01c0,0 0,0 0,0.01c0.01,0 0.01,0 0.01,0c0,0.01 0,0.01 0,0.01v0.01c0.01,0 0.01,0 0.01,0.01v0c0,0.01 0.01,0.01 0.01,0.01c0,0 0,0 0,0.01h0.01v0.01c0.01,0 0.01,0 0.01,0c0,0.01 0,0.01 0.01,0.01v0c0,0.01 0.01,0.01 0.01,0.01c0,0 0,0 0.01,0v0.01c0.01,0 0.01,0 0.01,0h0.01c0,0.01 0,0.01 0.01,0.01v0c0.01,0 0.01,0 0.01,0h0.01c0,0 0,0.01 0.01,0.01c0,0 0,0 0.01,0v0c0.01,0 0.01,0 0.01,0zM20.9833,15.1661v0.01c0,0 0,0 0,0.01c0,0 0,0 0,0.01v0c0,0.01 0,0.01 0,0.01c0,0 0,0.01 0.01,0.01c0,0 0,0 0,0.01v0c0,0.01 0,0.01 0,0.01c0.01,0 0.01,0.01 0.01,0.01c0,0 0,0 0,0.01c0,0 0,0 0.01,0c0,0.01 0,0.01 0,0.01c0,0 0,0 0.01,0.01v0l0.01,0.01v0c0.01,0.01 0.01,0.01 0.01,0.01c0,0 0,0 0.01,0c0,0.01 0,0.01 0,0.01h0.01c0,0 0,0.01 0.01,0.01v0c0.01,0 0.01,0 0.01,0c0,0.01 0.01,0.01 0.01,0.01c0,0 0,0 0.01,0v0c0.01,0 0.01,0 0.01,0c0.01,0 0.01,0.01 0.01,0.01h0.01c0,0 0,0 0.01,0v0h1.17h0.01h0.01c0,0 0,0 0.01,0v-0.01c0.01,0 0.01,0 0.01,0h0.01h0.01c0,0 0,0 0.01,-0.01v0c0.01,0 0.01,0 0.01,0l0.01,-0.01v0c0.01,0 0.01,0 0.01,-0.01h0.01c0,0 0,0 0,-0.01c0.01,0 0.01,0 0.01,0c0,0 0,-0.01 0.01,-0.01v0c0,-0.01 0,-0.01 0.01,-0.01c0,0 0,0 0,-0.01v0c0.01,-0.01 0.01,-0.01 0.01,-0.01v-0.01c0,0 0,0 0.01,-0.01v0c0,-0.01 0,-0.01 0,-0.01v-0.01c0,0 0,0 0.01,-0.01v0c0,-0.01 0,-0.01 0,-0.01c0,-0.01 0,-0.01 0,-0.01v-0.01v-5.62004c0,-0.01 0,-0.01 0,-0.01c0,-0.01 0,-0.01 0,-0.01v-0.01c0,0 0,0 0,-0.01c-0.01,0 -0.01,0 -0.01,0c0,-0.01 0,-0.01 0,-0.01c0,-0.01 0,-0.01 0,-0.01v-0.01c-0.01,0 -0.01,0 -0.01,-0.01v0c0,-0.01 0,-0.01 -0.01,-0.01c0,0 0,0 0,-0.01v0c-0.01,-0.01 -0.01,-0.01 -0.01,-0.01c0,0 0,0 0,-0.01c-0.01,0 -0.01,0 -0.01,0c0,0 0,-0.01 -0.01,-0.01v0l-0.01,-0.01c0,0 0,0 -0.01,0v-0.01c-0.01,0 -0.01,0 -0.01,0c0,0 0,0 -0.01,-0.01v0c-0.01,0 -0.01,0 -0.01,0h-0.01l-0.01,-0.01c0,0 0,0 -0.01,0v0c-0.01,0 -0.01,0 -0.01,0h-0.01h-0.01h-1.17v0c-0.01,0 -0.01,0 -0.01,0h-0.01c0,0 0,0 -0.01,0c0,0 0,0 -0.01,0v0.01c-0.01,0 -0.01,0 -0.01,0h-0.01c0,0 0,0 -0.01,0c0,0.01 0,0.01 0,0.01c-0.01,0 -0.01,0 -0.01,0l-0.01,0.01v0c-0.01,0 -0.01,0.01 -0.01,0.01c0,0 0,0 -0.01,0v0.01h-0.01c0,0.01 0,0.01 0,0.01c-0.01,0 -0.01,0 -0.01,0.01v0c-0.01,0.01 -0.01,0.01 -0.01,0.01c0,0 0,0 0,0.01c0,0 0,0 -0.01,0c0,0.01 0,0.01 0,0.01v0.01c0,0 0,0 0,0.01c-0.01,0 -0.01,0 -0.01,0.01v0c0,0.01 0,0.01 0,0.01v0.01c0,0 0,0 0,0.01c0,0 0,0 0,0.01zM26.3333,17.8361c0,-0.01 0,-0.01 0,-0.01v-0.01c0,0 0,0 0,-0.01c0,0 0,0 0,-0.01c0,0 0,0 -0.01,0c0,-0.01 0,-0.01 0,-0.01v-0.01c0,0 0,0 0,-0.01c0,0 0,0 -0.01,0c0,-0.01 0,-0.01 0,-0.01v-0.01c-0.01,0 -0.01,0 -0.01,-0.01v0l-0.01,-0.01v0c-0.01,-0.01 -0.01,-0.01 -0.01,-0.01c0,0 0,0 0,-0.01c-0.01,0 -0.01,0 -0.01,0c0,0 -0.01,0 -0.01,-0.01v0c-0.01,0 -0.01,0 -0.01,-0.01h-0.01c0,0 0,0 -0.01,0v-0.01c-0.01,0 -0.01,0 -0.01,0h-0.01c0,0 0,0 -0.01,0c0,-0.01 0,-0.01 0,-0.01c-0.01,0 -0.01,0 -0.01,0h-0.01h-0.01c0,0 0,0 -0.01,0h-11.52c-0.01,0 -0.01,0 -0.01,0c-0.01,0 -0.01,0 -0.01,0h-0.01c0,0 0,0 -0.01,0c0,0 0,0 -0.01,0c0,-0.01 0,-0.01 0,-0.01c-0.01,0 -0.01,0 -0.01,0h-0.01c0,0 0,0 -0.01,-0.01v0c-0.01,0 -0.01,0 -0.01,0l-0.01,-0.01v0c-0.01,0 -0.01,-0.01 -0.01,-0.01c0,0 0,0 -0.01,0v-0.01h-0.01c0,-0.01 0,-0.01 0,-0.01c-0.01,0 -0.01,0 -0.01,-0.01v0c-0.01,-0.01 -0.01,-0.01 -0.01,-0.01v-0.01c0,0 0,0 -0.01,0c0,-0.01 0,-0.01 0,-0.01v-0.01v-0.01c-0.01,0 -0.01,0 -0.01,-0.01v0c0,-0.01 0,-0.01 0,-0.01v-0.01v-0.01c0,0 0,0 0,-0.01v-4.83c0,0 0,0 0,-0.01c0,0 0,0 0,-0.01v0c0,-0.01 0,-0.01 0,-0.01c-0.01,0 -0.01,-0.01 -0.01,-0.01v-0.01c0,0 0,0 0,-0.01v0c-0.01,-0.01 -0.01,-0.01 -0.01,-0.01v-0.01c0,0 0,0 -0.01,-0.01v0v-0.01c-0.01,0 -0.01,0 -0.01,-0.01v0c-0.01,0 -0.01,-0.01 -0.01,-0.01c0,0 0,0 -0.01,0v-0.01h-0.01c0,0 0,-0.01 -0.01,-0.01v0l-0.01,-0.01c0,0 0,0 -0.01,0v0c-0.01,0 -0.01,-0.01 -0.01,-0.01h-0.01h-0.01c0,0 0,0 -0.01,0v0c-0.01,0 -0.01,0 -0.01,-0.01h-0.01h-0.01h-8.46997h-0.01c0,0 0,0 -0.01,0c0,0.01 0,0.01 0,0.01c-0.01,0 -0.01,0 -0.01,0c-0.01,0 -0.01,0 -0.01,0h-0.01c0,0 0,0 -0.01,0v0.01c-0.01,0 -0.01,0 -0.01,0h-0.01c0,0 0,0.01 -0.01,0.01v0l-0.01,0.01c0,0 0,0 -0.01,0v0.01h-0.01v0.01c-0.01,0 -0.01,0 -0.01,0c0,0.01 0,0.01 0,0.01c-0.01,0 -0.01,0.01 -0.01,0.01v0c0,0.01 -0.01,0.01 -0.01,0.01v0.01c0,0 0,0 0,0.01c-0.01,0 -0.01,0 -0.01,0c0,0.01 0,0.01 0,0.01v0.01v0.01c0,0 0,0 0,0.01c-0.01,0 -0.01,0 -0.01,0c0,0.01 0,0.01 0,0.01c0,0.01 0,0.01 0,0.01v13.11c0,0.01 0,0.01 0,0.01v0.01c0,0 0,0.01 0.01,0.01c0,0 0,0 0,0.01v0c0,0.01 0,0.01 0,0.01v0.01c0,0 0,0.01 0.01,0.01c0,0 0,0 0,0.01v0l0.01,0.01c0,0 0,0 0,0.01c0,0 0,0 0.01,0c0,0.01 0,0.01 0,0.01c0,0 0,0 0.01,0.01v0l0.01,0.01v0c0.01,0 0.01,0.01 0.01,0.01h0.01v0.01c0.01,0 0.01,0 0.01,0h0.01c0,0.01 0,0.01 0.01,0.01v0c0.01,0 0.01,0 0.01,0c0,0 0.01,0 0.01,0.01c0,0 0,0 0.01,0c0,0 0,0 0.01,0v0c0.01,0 0.01,0 0.01,0h0.01h20.32997c0.01,0 0.01,0 0.01,0h0.01h0.01c0,0 0,0 0.01,0v0c0.01,-0.01 0.01,-0.01 0.01,-0.01h0.01c0,0 0,0 0.01,0c0,0 0,0 0,-0.01c0.01,0 0.01,0 0.01,0h0.01c0,0 0,-0.01 0.01,-0.01v0l0.01,-0.01c0,0 0,0 0.01,0v-0.01c0,0 0,0 0.01,0c0,-0.01 0,-0.01 0,-0.01c0,0 0.01,0 0.01,-0.01v0c0,-0.01 0,-0.01 0.01,-0.01v-0.01v0c0.01,-0.01 0.01,-0.01 0.01,-0.01v-0.01v-0.01c0,0 0,0 0,-0.01c0.01,0 0.01,0 0.01,0c0,-0.01 0,-0.01 0,-0.01v-0.01v-0.01c0,0 0,0 0,-0.01zM18.4433,18.7461h2c0.11,0 0.17,0.06 0.17,0.17v2c0,0.11 -0.06,0.17 -0.17,0.17h-2c-0.11,0 -0.17,-0.06 -0.17,-0.17v-2c0,-0.11 0.06,-0.17 0.17,-0.17zM23.0233,18.7461h2c0.11,0 0.17,0.06 0.17,0.17v2c0,0.11 -0.06,0.17 -0.17,0.17h-2c-0.11,0 -0.17,-0.06 -0.17,-0.17v-2c0,-0.11 0.06,-0.17 0.17,-0.17zM18.4433,22.3661h2c0.11,0 0.17,0.06 0.17,0.17v2c0,0.11 -0.06,0.17 -0.17,0.17h-2c-0.11,0 -0.17,-0.06 -0.17,-0.17v-2c0,-0.11 0.06,-0.17 0.17,-0.17zM23.0233,22.3661h2c0.11,0 0.17,0.06 0.17,0.17v2c0,0.11 -0.06,0.17 -0.17,0.17h-2c-0.11,0 -0.17,-0.06 -0.17,-0.17v-2c0,-0.11 0.06,-0.17 0.17,-0.17zM6.75333,18.7461h2c0.11,0 0.17,0.06 0.17,0.17v2c0,0.11 -0.06,0.17 -0.17,0.17h-2c-0.11,0 -0.17,-0.06 -0.17,-0.17v-2c0,-0.11 0.06,-0.17 0.17,-0.17zM11.3333,18.7461h2c0.11,0 0.17,0.06 0.17,0.17v2c0,0.11 -0.06,0.17 -0.17,0.17h-2c-0.11,0 -0.17,-0.06 -0.17,-0.17v-2c0,-0.11 0.06,-0.17 0.17,-0.17zM6.75333,15.1261h2c0.11,0 0.17,0.06 0.17,0.17v2c0,0.11 -0.06,0.16 -0.17,0.16h-2c-0.11,0 -0.17,-0.05 -0.17,-0.16v-2c0,-0.11 0.06,-0.17 0.17,-0.17zM11.3333,15.1261h2c0.11,0 0.17,0.06 0.17,0.17v2c0,0.11 -0.06,0.16 -0.17,0.16h-2c-0.11,0 -0.17,-0.05 -0.17,-0.16v-2c0,-0.11 0.06,-0.17 0.17,-0.17zM6.75333,22.3661h2c0.11,0 0.17,0.06 0.17,0.17v2c0,0.11 -0.06,0.17 -0.17,0.17h-2c-0.11,0 -0.17,-0.06 -0.17,-0.17v-2c0,-0.11 0.06,-0.17 0.17,-0.17zM11.3333,22.3661h2c0.11,0 0.17,0.06 0.17,0.17v2c0,0.11 -0.06,0.17 -0.17,0.17h-2c-0.11,0 -0.17,-0.06 -0.17,-0.17v-2c0,-0.11 0.06,-0.17 0.17,-0.17zM7.18333,5.42606l-0.83,-1.83c0,0 -0.01,0 -0.01,-0.01v0c0,-0.01 0,-0.01 0,-0.01v-0.01l-0.01,-0.01c0,0 0,0 0,-0.01v0c0,-0.01 0,-0.01 0,-0.01c0,-0.01 0,-0.01 0,-0.01v-0.01v-0.01c0,0 0,0 0,-0.01c0.01,0 0.01,0 0.01,0c0,-0.01 0,-0.01 0,-0.01c0,-0.01 0,-0.01 0,-0.01v-0.01c0.01,0 0.01,0 0.01,-0.01v0c0,-0.01 0,-0.01 0.01,-0.01v-0.01c0,0 0,0 0,-0.01c0.01,0 0.01,0 0.01,0c0,0 0,-0.01 0.01,-0.01v0c0,-0.01 0,-0.01 0.01,-0.01c0,0 0,0 0,-0.01c0.01,0 0.01,0 0.01,0c0,0 0,0 0.01,-0.01v0c0.01,0 0.01,0 0.01,0c0,-0.01 0.01,-0.01 0.01,-0.01c0,0 0,0 0.01,0c0.61,-0.24 2.9,-0.94 5.72997,0.22c2.51,1.04 3.31,0.6 4.32,0.06c1.56,-0.85 3.43,-0.41 4.5,-0.03c0.01,0 0.01,0 0.01,0.01h0.01c0,0 0,0 0.01,0c0,0 0,0 0,0.01c0.01,0 0.01,0 0.01,0c0,0 0,0 0.01,0.01v0c0.01,0 0.01,0 0.01,0.01c0,0 0,0 0.01,0v0.01c0,0 0,0 0.01,0c0,0.01 0,0.01 0,0.01c0,0 0,0.01 0.01,0.01v0c0,0.01 0,0.01 0,0.01c0.01,0 0.01,0.01 0.01,0.01c0,0 0,0 0,0.01v0c0.01,0.01 0.01,0.01 0.01,0.01v0.01v0.01c0,0 0,0 0,0.01v0c0,0.01 0,0.01 0,0.01c0,0.01 0,0.01 0,0.01v0.01c0,0 0,0 0,0.01c0,0 0,0 0,0.01v0c0,0.01 0,0.01 0,0.01v0.01c0,0 -0.01,0 -0.01,0.01l-0.71,1.87c0,0 0,0 0,0.01c0,0 0,0 -0.01,0c0,0.01 0,0.01 0,0.01v0.01h-0.01c0,0.01 0,0.01 0,0.01c0,0 -0.01,0 -0.01,0.01v0l-0.01,0.01v0c-0.01,0.01 -0.01,0.01 -0.01,0.01c0,0 0,0 -0.01,0v0.01c-0.01,0 -0.01,0 -0.01,0c0,0 -0.01,0 -0.01,0.01v0c-0.01,0 -0.01,0 -0.01,0c0,0 -0.01,0 -0.01,0.01c0,0 0,0 -0.01,0c0,0 0,0 -0.01,0v0c-0.01,0 -0.01,0 -0.01,0h-0.01c0,0 0,0 -0.01,0c0,0 0,0 -0.01,0v0c-0.01,0 -0.01,0 -0.01,0h-0.01c0,0 0,0 -0.01,0v0c-0.01,0 -0.01,0 -0.01,0l-0.01,-0.01c-1.05,-0.37 -2,-0.41 -2.56,-0.1c-0.87,0.47 -1.74,0.85 -2.92,0.85c-0.9,0 -1.99,-0.22 -3.4,-0.8c-1.93997,-0.8 -3.44997,-0.4 -3.89997,-0.24c-0.01,0 -0.01,0 -0.02,0h-0.01c-0.01,0 -0.01,0 -0.02,0h-0.01c-0.01,0 -0.01,0 -0.02,0h-0.01c-0.01,0 -0.01,0 -0.02,0c0,-0.01 -0.01,-0.01 -0.01,-0.01c-0.01,0 -0.01,0 -0.01,-0.01c-0.01,0 -0.01,0 -0.02,0c0,-0.01 -0.01,-0.01 -0.01,-0.01c0,-0.01 -0.01,-0.01 -0.01,-0.01c-0.01,-0.01 -0.01,-0.01 -0.01,-0.01c-0.01,-0.01 -0.01,-0.01 -0.01,-0.02c0,0 -0.01,0 -0.01,-0.01c0,0 0,-0.01 -0.01,-0.01z">
      </path>
    </g>
  </g>
  <defs>
    <rect id="path_0" x="0" y="0" width="32" height="32" />
  </defs>
</svg>