<?xml version="1.0" encoding="UTF-8"?>
<svg xmlns="http://www.w3.org/2000/svg" xmlns:xlink="http://www.w3.org/1999/xlink" width="32" height="32"
  viewBox="0 0 32 32" fill="none">
  <g opacity="1" transform="translate(0 0)  rotate(0)">
    <mask id="bg-mask-0" fill="white">
      <use transform="translate(0 0)  rotate(0)" xlink:href="#path_0"></use>
    </mask>
    <g mask="url(#bg-mask-0)">
      <path id="路径 1" fill-rule="evenodd" style="fill:#575757" opacity="1"
        d="M7.9422,12.3647c-2.23,0 -4.03,-1.84 -4.03,-4.12001c0,-2.28 1.8,-4.12 4.03,-4.12c2.23,0 4.03,1.84 4.03,4.12c0,2.28001 -1.8,4.12001 -4.03,4.12001zM5.0322,8.24469c0,1.66 1.3,3.00001 2.91,3.00001c1.61,0 2.91,-1.34001 2.91,-3.00001c0,-1.66 -1.3,-3 -2.91,-3c-1.61,0 -2.91,1.34 -2.91,3zM19.3822,23.6647c0,-0.07 0,-0.13 0,-0.2c0.01,-0.07 0.01,-0.14 0.02,-0.2c0,-0.07 0.01,-0.14 0.02,-0.2c0.01,-0.07 0.02,-0.14 0.04,-0.2c0.01,-0.07 0.02,-0.13 0.04,-0.2c0.02,-0.07 0.04,-0.13 0.06,-0.19c0.01,-0.07 0.04,-0.13 0.06,-0.2c0.02,-0.06 0.05,-0.12 0.07,-0.19c0.03,-0.06 0.05,-0.12 0.08,-0.18c0.03,-0.06 0.06,-0.12 0.09,-0.18c0.04,-0.06 0.07,-0.12 0.1,-0.18c0.04,-0.05 0.07,-0.11 0.11,-0.17c0.04,-0.05 0.08,-0.11 0.12,-0.16c0.04,-0.06 0.08,-0.11 0.12,-0.16c0.05,-0.05 0.09,-0.11 0.14,-0.16c0.04,-0.05 0.09,-0.09 0.13,-0.14c0.05,-0.05 0.1,-0.1 0.15,-0.14c0.05,-0.05 0.1,-0.09 0.15,-0.13c0.06,-0.05 0.11,-0.09 0.16,-0.13c0.06,-0.04 0.11,-0.08 0.17,-0.11c0.05,-0.04 0.11,-0.08 0.17,-0.11c0.06,-0.04 0.12,-0.07 0.18,-0.1c0.06,-0.03 0.12,-0.06 0.18,-0.09c0.06,-0.03 0.12,-0.06 0.18,-0.09c0.06,-0.02 0.13,-0.05 0.19,-0.07c0.06,-0.02 0.13,-0.04 0.19,-0.06c0.07,-0.02 0.13,-0.04 0.2,-0.06c0.06,-0.01 0.13,-0.03 0.19,-0.04c0.07,-0.01 0.14,-0.02 0.2,-0.03c0.07,-0.01 0.14,-0.02 0.2,-0.03c0.07,-0.01 0.14,-0.01 0.21,-0.01c0.06,-0.01 0.13,-0.01 0.2,-0.01c0.07,0 0.13,0 0.2,0.01c0.07,0 0.13,0 0.2,0.01c0.07,0.01 0.14,0.02 0.2,0.03c0.07,0.01 0.14,0.02 0.2,0.03c0.07,0.01 0.13,0.03 0.2,0.04c0.06,0.02 0.13,0.04 0.19,0.06c0.07,0.02 0.13,0.04 0.2,0.06c0.06,0.02 0.12,0.05 0.18,0.07c0.07,0.03 0.13,0.06 0.19,0.09c0.06,0.03 0.12,0.06 0.18,0.09c0.06,0.03 0.12,0.06 0.18,0.1c0.05,0.03 0.11,0.07 0.17,0.11c0.05,0.03 0.11,0.07 0.16,0.11c0.06,0.04 0.11,0.08 0.16,0.13c0.05,0.04 0.1,0.08 0.15,0.13c0.05,0.04 0.1,0.09 0.15,0.14c0.05,0.05 0.1,0.09 0.14,0.14c0.05,0.05 0.09,0.11 0.13,0.16c0.05,0.05 0.09,0.1 0.13,0.16c0.04,0.05 0.08,0.11 0.11,0.16c0.04,0.06 0.08,0.12 0.11,0.17c0.04,0.06 0.07,0.12 0.1,0.18c0.03,0.06 0.06,0.12 0.09,0.18c0.03,0.06 0.06,0.12 0.08,0.18c0.03,0.07 0.05,0.13 0.08,0.19c0.02,0.07 0.04,0.13 0.06,0.2c0.02,0.06 0.04,0.12 0.05,0.19c0.02,0.07 0.04,0.13 0.05,0.2c0.01,0.06 0.02,0.13 0.03,0.2c0.01,0.06 0.02,0.13 0.03,0.2c0,0.06 0.01,0.13 0.01,0.2c0.01,0.07 0.01,0.13 0.01,0.2c0,0.07 0,0.14 -0.01,0.2c0,0.07 -0.01,0.14 -0.01,0.21c-0.01,0.06 -0.02,0.13 -0.03,0.2c-0.01,0.06 -0.02,0.13 -0.03,0.19c-0.01,0.07 -0.03,0.14 -0.05,0.2c-0.01,0.07 -0.03,0.13 -0.05,0.2c-0.02,0.06 -0.04,0.13 -0.06,0.19c-0.03,0.06 -0.05,0.13 -0.08,0.19c-0.02,0.06 -0.05,0.12 -0.08,0.18c-0.03,0.06 -0.06,0.12 -0.09,0.18c-0.03,0.06 -0.06,0.12 -0.1,0.18c-0.03,0.06 -0.07,0.11 -0.11,0.17c-0.03,0.06 -0.07,0.11 -0.11,0.17c-0.04,0.05 -0.08,0.1 -0.13,0.16c-0.04,0.05 -0.08,0.1 -0.13,0.15c-0.04,0.05 -0.09,0.1 -0.14,0.14c-0.05,0.05 -0.1,0.1 -0.15,0.14c-0.05,0.05 -0.1,0.09 -0.15,0.14c-0.05,0.04 -0.1,0.08 -0.16,0.12c-0.05,0.04 -0.11,0.08 -0.16,0.12c-0.06,0.03 -0.12,0.07 -0.17,0.11c-0.06,0.03 -0.12,0.06 -0.18,0.09c-0.06,0.04 -0.12,0.07 -0.18,0.1c-0.06,0.02 -0.12,0.05 -0.19,0.08c-0.06,0.02 -0.12,0.05 -0.18,0.07c-0.07,0.02 -0.13,0.04 -0.2,0.06c-0.06,0.02 -0.13,0.04 -0.19,0.06c-0.07,0.01 -0.13,0.03 -0.2,0.04c-0.06,0.02 -0.13,0.03 -0.2,0.04c-0.06,0.01 -0.13,0.01 -0.2,0.02c-0.07,0.01 -0.13,0.01 -0.2,0.02c-0.07,0 -0.13,0 -0.2,0c-0.07,0 -0.14,0 -0.2,0c-0.07,-0.01 -0.14,-0.01 -0.21,-0.02c-0.06,-0.01 -0.13,-0.01 -0.2,-0.02c-0.06,-0.01 -0.13,-0.02 -0.2,-0.04c-0.06,-0.01 -0.13,-0.03 -0.19,-0.04c-0.07,-0.02 -0.13,-0.04 -0.2,-0.06c-0.06,-0.02 -0.13,-0.04 -0.19,-0.06c-0.06,-0.02 -0.13,-0.05 -0.19,-0.07c-0.06,-0.03 -0.12,-0.06 -0.18,-0.08c-0.06,-0.03 -0.12,-0.06 -0.18,-0.1c-0.06,-0.03 -0.12,-0.06 -0.18,-0.09c-0.06,-0.04 -0.12,-0.08 -0.17,-0.11c-0.06,-0.04 -0.11,-0.08 -0.17,-0.12c-0.05,-0.04 -0.1,-0.08 -0.16,-0.12c-0.05,-0.05 -0.1,-0.09 -0.15,-0.14c-0.05,-0.04 -0.1,-0.09 -0.15,-0.14c-0.04,-0.04 -0.09,-0.09 -0.13,-0.14c-0.05,-0.05 -0.09,-0.1 -0.14,-0.15c-0.04,-0.06 -0.08,-0.11 -0.12,-0.16c-0.04,-0.06 -0.08,-0.11 -0.12,-0.17c-0.04,-0.06 -0.07,-0.11 -0.11,-0.17c-0.03,-0.06 -0.06,-0.12 -0.1,-0.18c-0.03,-0.06 -0.06,-0.12 -0.09,-0.18c-0.03,-0.06 -0.05,-0.12 -0.08,-0.18c-0.02,-0.06 -0.05,-0.13 -0.07,-0.19c-0.02,-0.06 -0.05,-0.13 -0.06,-0.19c-0.02,-0.07 -0.04,-0.13 -0.06,-0.2c-0.02,-0.06 -0.03,-0.13 -0.04,-0.2c-0.02,-0.06 -0.03,-0.13 -0.04,-0.19c-0.01,-0.07 -0.02,-0.14 -0.02,-0.2c-0.01,-0.07 -0.01,-0.14 -0.02,-0.21c0,-0.06 0,-0.13 0,-0.2zM3.9122,19.5347h8.24v8.26h-8.24zM23.4922,3.99469l4.26,4.25l-4.25,4.25001l-4.25,-4.25001zM8.7622,19.2447h-1.45v-3.7h-2l2.72,-2.9l2.73,2.9h-2zM16.2922,7.51469v-1.99l2.9,2.72l-2.9,2.72001v-1.99001h-3.7v-1.46zM22.7722,12.5147h1.45v3.7h2l-2.72,2.91l-2.73,-2.91h2z">
      </path>
    </g>
  </g>
  <defs>
    <rect id="path_0" x="0" y="0" width="32" height="32" />
  </defs>
</svg>