<svg xmlns="http://www.w3.org/2000/svg" xmlns:xlink="http://www.w3.org/1999/xlink" width="16" height="16" viewBox="0 0 16 16" fill="none"><path id="路径 1" fill-rule="evenodd" style="fill:#888E9E" opacity="1" d="M13.6528 13.6528C12.0864 15.2176 10.2032 16 8 16C5.7968 16 3.91359 15.2176 2.3472 13.6528C0.7824 12.0864 0 10.2032 0 8C0 5.79841 0.7824 3.91359 2.3472 2.3472C3.91359 0.7824 5.7968 0 8 0C10.2032 0 12.0864 0.7824 13.6528 2.3472C15.2176 3.91359 16 5.79841 16 8C16 10.2032 15.2176 12.0864 13.6528 13.6528ZM0.3472 7.6528L15.6512 7.6528L15.6512 8.3488L0.3472 8.3488L0.3472 7.6528ZM13.1744 2.82559C11.7536 1.4064 10.0288 0.696 8 0.696C5.9712 0.696 4.24641 1.4064 2.82559 2.82559C1.4064 4.24641 0.696 5.9712 0.696 8C0.696 10.0288 1.4064 11.7552 2.82559 13.1744C4.24641 14.5936 5.9712 15.304 8 15.304C10.0288 15.304 11.7536 14.5936 13.1744 13.1728C14.5936 11.7552 15.304 10.0288 15.304 8C15.304 5.9712 14.5936 4.24641 13.1744 2.82559ZM2.12959 3.21759L2.4768 2.60959C3.928 3.4208 5.768 3.82559 8 3.82559C10.232 3.82559 12.072 3.4192 13.5216 2.608L13.8688 3.216C12.304 4.08641 10.3472 4.52159 8 4.52159C5.6528 4.52159 3.696 4.08641 2.12959 3.21759ZM13.5216 13.392C12.072 12.5808 10.232 12.1744 8 12.1744C5.768 12.1744 3.928 12.5808 2.47841 13.392L2.1312 12.784C3.7248 11.9136 5.68159 11.4784 8 11.4784C10.3472 11.4784 12.304 11.9136 13.8704 12.7824L13.5216 13.392ZM10.9568 13.696C10.1456 15.232 9.16 16 8 16C6.84 16 5.85441 15.224 5.0432 13.6736C4.232 12.1248 3.82559 10.232 3.82559 8C3.82559 5.768 4.232 3.8768 5.0432 2.32641C5.85441 0.776 6.84 0 8 0C9.16 0 10.1456 0.776 10.9568 2.32641C11.768 3.8768 12.1744 5.768 12.1744 8C12.1744 10.232 11.768 12.1296 10.9568 13.696ZM10.4352 2.8688C9.7392 1.4208 8.928 0.696 8 0.696C7.072 0.696 6.2608 1.4208 5.5648 2.8688C4.8688 4.32 4.52159 6.0288 4.52159 8C4.52159 9.9712 4.8688 11.6816 5.5648 13.1296C6.2608 14.5808 7.072 15.304 8 15.304C8.928 15.304 9.7392 14.5808 10.4352 13.1296C11.1312 11.6816 11.4784 9.9712 11.4784 8C11.4784 6.0288 11.1312 4.32 10.4352 2.8688ZM7.6528 0.3472L8.3488 0.3472L8.3488 15.6512L7.6528 15.6512L7.6528 0.3472Z"></path></svg>