<svg xmlns="http://www.w3.org/2000/svg" xmlns:xlink="http://www.w3.org/1999/xlink" width="11.48248291015625" height="13.4447021484375" viewBox="0 0 11.48248291015625 13.4447021484375" fill="none"><path id="icon" fill-rule="evenodd" style="fill:#8B91A1" opacity="1" d="M9.80402 9.59769C9.19108 8.98473 8.46397 8.52741 7.67073 8.24541C8.08909 8.03786 8.47544 7.76141 8.81533 7.4215C9.63645 6.60039 10.0887 5.50866 10.0887 4.34742C10.0887 3.1862 9.63647 2.09445 8.81533 1.27332C7.99423 0.45223 6.90248 0 5.74127 0C4.58003 0 3.4883 0.45223 2.66717 1.27332C1.84605 2.09444 1.39383 3.18619 1.39383 4.34742C1.39383 5.50867 1.84603 6.60039 2.66717 7.4215C3.00706 7.76141 3.39342 8.03786 3.8118 8.24541C3.01853 8.52742 2.29144 8.98473 1.67847 9.59769C0.644281 10.6319 0.053328 11.9909 0 13.4447L0.761422 13.4447C0.814344 12.1943 1.32611 11.0262 2.21656 10.1358C3.08798 9.26436 4.22528 8.75569 5.44547 8.68473C5.5435 8.69128 5.64208 8.69483 5.74123 8.69483C5.84039 8.69483 5.939 8.69128 6.03702 8.68473C7.25719 8.75569 8.39452 9.26436 9.26592 10.1358C10.1564 11.0262 10.6681 12.1943 10.7211 13.4447L11.4825 13.4447C11.4292 11.9909 10.8382 10.6319 9.80402 9.59769ZM2.15481 4.34741C2.15481 2.36984 3.76369 0.760948 5.74127 0.760948C7.71884 0.760948 9.32773 2.36984 9.32773 4.34741C9.32773 6.22717 7.87398 7.77366 6.03177 7.92203C5.93534 7.91727 5.83848 7.91483 5.74127 7.91483C5.64405 7.91483 5.5472 7.91727 5.45077 7.92203C3.60855 7.77366 2.15481 6.22717 2.15481 4.34741Z"></path></svg>