<?xml version="1.0" encoding="UTF-8"?>
<svg id="_图层_1" data-name="图层 1" xmlns="http://www.w3.org/2000/svg" xmlns:xlink="http://www.w3.org/1999/xlink" viewBox="0 0 143.36 56">
  <defs>
    <style>
      .cls-1 {
        fill: url(#_未命名的渐变_222-2);
        opacity: .9;
      }

      .cls-1, .cls-2, .cls-3, .cls-4, .cls-5, .cls-6 {
        stroke-width: 0px;
      }

      .cls-2 {
        fill: url(#_未命名的渐变_222);
      }

      .cls-3 {
        fill: #abbdff;
      }

      .cls-4 {
        fill: #9bb9f9;
      }

      .cls-5 {
        fill: #8094f9;
      }

      .cls-6 {
        fill: #fff;
      }
    </style>
    <linearGradient id="_未命名的渐变_222" data-name="未命名的渐变 222" x1="28.72" y1="31.37" x2="45.54" y2="37.14" gradientUnits="userSpaceOnUse">
      <stop offset="0" stop-color="#fff"/>
      <stop offset="1" stop-color="#fff"/>
    </linearGradient>
    <linearGradient id="_未命名的渐变_222-2" data-name="未命名的渐变 222" x1="5.84" y1="14.95" x2="29.96" y2="14.95" xlink:href="#_未命名的渐变_222"/>
  </defs>
  <g>
    <path class="cls-2" d="m24.6,54l17.51-9.79c4.08-2.28,6.6-6.58,6.6-11.26V14.19l-24.12,13.48v26.33Z"/>
    <polygon class="cls-1" points="5.84 20.88 21.65 26.12 29.96 17.57 29.96 3.77 5.84 17.25 5.84 20.88 5.84 20.88"/>
    <path class="cls-3" d="m5.84,17.25l-4.43-2.79L22.07,2.87c2.14-1.2,4.76-1.16,6.87.1l1.02.75L5.84,17.25Z"/>
    <path class="cls-5" d="m24.6,27.75l-5.99-3.59,22.05-12.36c1.28-.72,2.84-.69,4.09.06l3.96,2.37-24.12,13.52Z"/>
    <path class="cls-4" d="m18.61,24.07v.25L1.41,14.45v24.15c0,1.38.73,2.66,1.91,3.38l1.72.96v-19.35l3.77,2.54v18.76l3.47,2.19v-19.46l5.67,3.34v17.37c0,.95.5,1.83,1.31,2.32l5.33,3.35v-26.33l-5.99-3.59Z"/>
  </g>
  <g>
    <path class="cls-6" d="m88.48,16.44h4.94v28.04h-6.21v-16.62l-6.32,9.04h-3.33l-6.4-9.12v16.7h-6.13v-28.04h5.06l9.23,13.52,9.15-13.52Z"/>
    <path class="cls-6" d="m116.4,33.18h-10.96v5.63h12.68v5.67h-19.23v-28.04h18.77v5.63h-12.22v5.52h10.96v5.59Z"/>
    <path class="cls-6" d="m140.32,41.3c-1.09,1.3-2.45,2.24-4.08,2.81-1.63.57-3.31.86-5.02.86-2.58,0-4.94-.59-7.09-1.78-2.15-1.19-3.58-2.9-4.29-5.15l5.29-3.03c.56,1.3,1.38,2.31,2.47,3.03,1.08.72,2.37,1.07,3.85,1.07,1.1,0,1.99-.21,2.66-.63.68-.42,1.02-1.04,1.02-1.86,0-.66-.23-1.21-.69-1.65-.46-.43-1.03-.79-1.72-1.07-.69-.28-1.66-.6-2.91-.96-1.84-.54-3.34-1.07-4.5-1.61-1.16-.54-2.16-1.35-3.01-2.43-.84-1.08-1.26-2.51-1.26-4.27,0-1.94.5-3.56,1.51-4.86,1.01-1.3,2.32-2.27,3.95-2.91,1.62-.64,3.36-.96,5.23-.96,2.45,0,4.6.56,6.44,1.69,1.84,1.12,3.03,2.72,3.56,4.79l-5.36,3.03c-.41-1.15-1.04-2.04-1.9-2.68-.86-.64-1.9-.96-3.12-.96-1.05,0-1.9.24-2.55.73-.65.49-.98,1.11-.98,1.88,0,.59.22,1.09.67,1.49.45.41,1,.74,1.67,1,.66.26,1.61.57,2.83.96,1.89.56,3.42,1.12,4.6,1.67,1.17.55,2.2,1.37,3.06,2.47.87,1.1,1.3,2.53,1.3,4.29,0,2.07-.54,3.75-1.63,5.06Z"/>
  </g>
</svg>