<?xml version="1.0" encoding="UTF-8"?>
<svg xmlns="http://www.w3.org/2000/svg" xmlns:xlink="http://www.w3.org/1999/xlink" width="32" height="32"
  viewBox="0 0 32 32" fill="none">
  <g opacity="1" transform="translate(0 0)  rotate(0)">
    <mask id="bg-mask-0" fill="white">
      <use transform="translate(0 0)  rotate(0)" xlink:href="#path_0"></use>
    </mask>
    <g mask="url(#bg-mask-0)">
      <path id="路径 1" fill-rule="evenodd" style="fill:#575757" opacity="1"
        d="M13.3305,4.33333c0.02,0 0.03,0 0.05,0c0.01,0 0.03,0 0.04,0c0.02,0.01 0.04,0.01 0.05,0.01c0.02,0 0.03,0 0.05,0.01c0.01,0 0.03,0 0.04,0.01c0.02,0 0.03,0 0.05,0.01c0.01,0 0.03,0.01 0.04,0.01c0.01,0.01 0.03,0.01 0.04,0.02c0.02,0 0.03,0.01 0.05,0.02c0.01,0 0.02,0.01 0.04,0.01c0.01,0.01 0.03,0.02 0.04,0.03c0.01,0 0.03,0.01 0.04,0.02c0.01,0.01 0.02,0.02 0.04,0.02c0.01,0.01 0.02,0.02 0.03,0.03c0.02,0.01 0.03,0.02 0.04,0.03c0.01,0.01 0.02,0.02 0.04,0.03c0.01,0.01 0.02,0.02 0.03,0.03c0.01,0.01 0.02,0.02 0.03,0.04c0.01,0.01 0.02,0.02 0.03,0.03c0.01,0.01 0.02,0.02 0.03,0.04c0.01,0.01 0.02,0.02 0.03,0.03c0.01,0.02 0.01,0.03 0.02,0.04c0.01,0.02 0.02,0.03 0.03,0.04c0,0.02 0.01,0.03 0.02,0.04c0,0.02 0.01,0.03 0.02,0.05c0,0.01 0.01,0.02 0.01,0.04c0.01,0.01 0.02,0.03 0.02,0.04c0.01,0.02 0.01,0.03 0.01,0.05c0.01,0.01 0.01,0.03 0.02,0.04c0,0.02 0,0.03 0.01,0.05c0,0.01 0,0.03 0,0.04c0,0.02 0.01,0.03 0.01,0.05l0.35,3.76h1.99c0.01,0 0.03,0 0.04,0c0.02,0 0.04,0 0.05,0c0.02,0 0.03,0 0.05,0.01c0.01,0 0.03,0 0.05,0c0.01,0.01 0.03,0.01 0.04,0.01c0.02,0.01 0.03,0.01 0.05,0.02c0.01,0 0.03,0.01 0.04,0.01c0.02,0.01 0.03,0.01 0.05,0.02c0.01,0 0.03,0.01 0.04,0.02c0.02,0 0.03,0.01 0.04,0.02c0.02,0.01 0.03,0.01 0.05,0.02c0.01,0.01 0.02,0.02 0.04,0.03c0.01,0 0.02,0.01 0.04,0.02c0.01,0.01 0.02,0.02 0.03,0.03c0.02,0.01 0.03,0.02 0.04,0.03c0.01,0.01 0.02,0.02 0.04,0.03c0.01,0.01 0.02,0.03 0.03,0.04c0.01,0.01 0.02,0.02 0.03,0.03c0.01,0.01 0.02,0.03 0.03,0.04c0.01,0.01 0.02,0.02 0.03,0.04c0.01,0.01 0.02,0.02 0.03,0.04c0.01,0.01 0.01,0.02 0.02,0.04c0.01,0.01 0.02,0.02 0.02,0.04c0.01,0.01 0.02,0.03 0.03,0.04c0,0.02 0.01,0.03 0.01,0.04c0.01,0.02 0.02,0.03 0.02,0.05c0.01,0.01 0.01,0.03 0.02,0.04c0,0.02 0,0.04 0.01,0.05c0,0.02 0,0.03 0.01,0.05c0,0.01 0,0.03 0.01,0.04c0,0.02 0,0.04 0,0.05c0,0.02 0,0.03 0,0.05c0.01,0.01 0.01,0.03 0.01,0.04997c0,0.01 0,0.03 -0.01,0.04c0,0.02 0,0.04 0,0.05c0,0.02 0,0.03 0,0.05c-0.01,0.01 -0.01,0.03 -0.01,0.05c-0.01,0.01 -0.01,0.03 -0.01,0.04c-0.01,0.02 -0.01,0.03 -0.01,0.05c-0.01,0.01 -0.01,0.03 -0.02,0.04c0,0.02 -0.01,0.03 -0.02,0.05c0,0.01 -0.01,0.03 -0.01,0.04c-0.01,0.02 -0.02,0.03 -0.03,0.04c0,0.02 -0.01,0.03 -0.02,0.05c-0.01,0.01 -0.01,0.02 -0.02,0.04c-0.01,0.01 -0.02,0.02 -0.03,0.04c-0.01,0.01 -0.02,0.02 -0.03,0.03c-0.01,0.02 -0.02,0.03 -0.03,0.04c-0.01,0.01 -0.02,0.02 -0.03,0.04c-0.01,0.01 -0.02,0.02 -0.03,0.03c-0.01,0.01 -0.03,0.02 -0.04,0.03c-0.01,0.01 -0.02,0.02 -0.04,0.03c-0.01,0.01 -0.02,0.02 -0.03,0.03c-0.02,0.01 -0.03,0.02 -0.04,0.03c-0.02,0.01 -0.03,0.01 -0.04,0.02c-0.02,0.01 -0.03,0.02 -0.05,0.02c-0.01,0.01 -0.02,0.02 -0.04,0.03c-0.01,0 -0.03,0.01 -0.04,0.01c-0.02,0.01 -0.03,0.02 -0.05,0.02c-0.01,0.01 -0.03,0.01 -0.04,0.02c-0.02,0 -0.03,0 -0.05,0.01c-0.01,0 -0.03,0.01 -0.04,0.01c-0.02,0 -0.03,0 -0.05,0.01c-0.02,0 -0.03,0 -0.05,0l-0.09,0.01h-1.8l0.31,3.35l3.58,-2.51c0.01,0 0.02,-0.01 0.03,-0.02c0.01,0 0.02,-0.01 0.03,-0.01c0.01,-0.01 0.02,-0.02 0.03,-0.02c0.01,-0.01 0.02,-0.01 0.03,-0.02c0.01,0 0.02,-0.01 0.03,-0.01c0.01,-0.01 0.02,-0.01 0.03,-0.02c0.01,0 0.02,-0.01 0.03,-0.01c0.02,0 0.03,-0.01 0.04,-0.01c0.01,-0.01 0.02,-0.01 0.03,-0.01c0.01,-0.01 0.02,-0.01 0.03,-0.01c0.02,-0.01 0.03,-0.01 0.04,-0.01c0.01,0 0.02,-0.01 0.03,-0.01c0.01,0 0.03,0 0.04,0c0.01,-0.01 0.02,-0.01 0.03,-0.01c0.01,0 0.02,0 0.04,0c0.01,0 0.02,0 0.03,-0.01c0.01,0 0.02,0 0.04,0c0.01,0 0.02,0 0.03,0c0.01,0 0.02,0 0.04,0c0.01,0.01 0.02,0.01 0.03,0.01c0.01,0 0.02,0 0.04,0c0.01,0 0.02,0 0.03,0.01c0.01,0 0.02,0 0.03,0c0.02,0 0.03,0.01 0.04,0.01c0.01,0 0.02,0 0.03,0.01c0.01,0 0.02,0 0.04,0.01c0.01,0 0.02,0 0.03,0.01c0.01,0 0.02,0.01 0.03,0.01c0.01,0 0.02,0.01 0.03,0.01c0.01,0.01 0.03,0.01 0.04,0.02c0.01,0 0.02,0.01 0.03,0.01c0.01,0.01 0.02,0.01 0.03,0.02l0.09,0.05l6.66,4.67c0.27,0.19 0.43,0.49 0.43,0.82v8.33h1c0.02,0 0.03,0 0.05,0c0.01,0.01 0.03,0.01 0.04,0.01c0.02,0 0.04,0 0.05,0c0.02,0.01 0.03,0.01 0.05,0.01c0.01,0 0.03,0.01 0.05,0.01c0.01,0.01 0.03,0.01 0.04,0.01c0.02,0.01 0.03,0.01 0.05,0.02c0.01,0 0.03,0.01 0.04,0.02c0.02,0 0.03,0.01 0.04,0.01c0.02,0.01 0.03,0.02 0.05,0.02c0.01,0.01 0.03,0.02 0.04,0.03c0.01,0.01 0.03,0.01 0.04,0.02c0.01,0.01 0.03,0.02 0.04,0.03c0.01,0.01 0.02,0.02 0.04,0.03c0.01,0.01 0.02,0.02 0.03,0.03c0.02,0.01 0.03,0.02 0.04,0.03c0.01,0.01 0.02,0.02 0.03,0.03c0.01,0.01 0.02,0.03 0.03,0.04c0.02,0.01 0.03,0.02 0.03,0.04c0.01,0.01 0.02,0.02 0.03,0.03c0.01,0.02 0.02,0.03 0.03,0.04c0.01,0.02 0.02,0.03 0.02,0.04c0.01,0.02 0.02,0.03 0.03,0.04c0.01,0.02 0.01,0.03 0.02,0.05c0.01,0.01 0.01,0.03 0.02,0.04c0,0.02 0.01,0.03 0.01,0.05c0.01,0.01 0.01,0.03 0.02,0.04c0,0.02 0.01,0.03 0.01,0.05c0,0.01 0.01,0.03 0.01,0.04c0,0.02 0.01,0.03 0.01,0.05c0,0.02 0,0.03 0,0.05c0.01,0.01 0.01,0.03 0.01,0.05c0,0.01 0,0.03 0,0.04c0,0.02 0,0.03 0,0.05c0,0.02 0,0.03 -0.01,0.05c0,0.01 0,0.03 0,0.05c0,0.01 -0.01,0.03 -0.01,0.04c0,0.02 -0.01,0.03 -0.01,0.05c0,0.01 -0.01,0.03 -0.01,0.04c-0.01,0.02 -0.01,0.03 -0.02,0.05c0,0.01 -0.01,0.03 -0.01,0.04c-0.01,0.02 -0.01,0.03 -0.02,0.05c-0.01,0.01 -0.01,0.03 -0.02,0.04c-0.01,0.01 -0.02,0.03 -0.02,0.04c-0.01,0.02 -0.02,0.03 -0.03,0.04c-0.01,0.02 -0.02,0.03 -0.03,0.04c-0.01,0.02 -0.01,0.03 -0.02,0.04c-0.01,0.01 -0.02,0.03 -0.03,0.04c-0.02,0.01 -0.03,0.02 -0.04,0.03c-0.01,0.01 -0.02,0.03 -0.03,0.04c-0.01,0.01 -0.02,0.02 -0.04,0.03c-0.01,0.01 -0.02,0.02 -0.03,0.03c-0.01,0.01 -0.03,0.02 -0.04,0.03c-0.01,0.01 -0.03,0.02 -0.04,0.02c-0.01,0.01 -0.03,0.02 -0.04,0.03c-0.01,0.01 -0.03,0.01 -0.04,0.02c-0.02,0.01 -0.03,0.02 -0.04,0.02c-0.02,0.01 -0.03,0.02 -0.05,0.02c-0.01,0.01 -0.03,0.01 -0.04,0.02c-0.02,0 -0.03,0.01 -0.05,0.01c-0.01,0.01 -0.03,0.01 -0.04,0.01c-0.02,0.01 -0.03,0.01 -0.05,0.02c-0.02,0 -0.03,0 -0.05,0c-0.01,0.01 -0.03,0.01 -0.04,0.01h-0.1h-24c-0.02,0 -0.03,0 -0.05,0c-0.01,0 -0.03,0 -0.05,0c-0.01,0 -0.03,0 -0.04,-0.01c-0.02,0 -0.03,0 -0.05,0c-0.02,-0.01 -0.03,-0.01 -0.05,-0.01c-0.01,-0.01 -0.03,-0.01 -0.04,-0.02c-0.02,0 -0.03,-0.01 -0.05,-0.01c-0.01,-0.01 -0.03,-0.01 -0.04,-0.02c-0.02,0 -0.03,-0.01 -0.05,-0.02c-0.01,0 -0.02,-0.01 -0.04,-0.02c-0.01,-0.01 -0.03,-0.01 -0.04,-0.02c-0.01,-0.01 -0.03,-0.02 -0.04,-0.03c-0.01,0 -0.03,-0.01 -0.04,-0.02c-0.01,-0.01 -0.03,-0.02 -0.04,-0.03c-0.01,-0.01 -0.02,-0.02 -0.03,-0.03c-0.02,-0.01 -0.03,-0.02 -0.04,-0.03c-0.01,-0.01 -0.02,-0.03 -0.03,-0.04c-0.01,-0.01 -0.03,-0.02 -0.04,-0.03c-0.01,-0.01 -0.02,-0.03 -0.03,-0.04c-0.01,-0.01 -0.02,-0.02 -0.02,-0.04c-0.01,-0.01 -0.02,-0.02 -0.03,-0.04c-0.01,-0.01 -0.02,-0.02 -0.03,-0.04c0,-0.01 -0.01,-0.02 -0.02,-0.04c-0.01,-0.01 -0.01,-0.03 -0.02,-0.04c-0.01,-0.02 -0.01,-0.03 -0.02,-0.04c0,-0.02 -0.01,-0.03 -0.01,-0.05c-0.01,-0.01 -0.01,-0.03 -0.02,-0.04c0,-0.02 -0.01,-0.04 -0.01,-0.05c-0.01,-0.02 -0.01,-0.03 -0.01,-0.05c0,-0.01 -0.01,-0.03 -0.01,-0.04c0,-0.02 0,-0.04 -0.01,-0.05c0,-0.02 0,-0.03 0,-0.05c0,-0.01 0,-0.03 0,-0.05c0,-0.01 0,-0.03 0,-0.04c0,-0.02 0,-0.04 0,-0.05c0.01,-0.02 0.01,-0.03 0.01,-0.05c0,-0.01 0,-0.03 0.01,-0.05c0,-0.01 0,-0.03 0.01,-0.04c0,-0.02 0.01,-0.03 0.01,-0.05c0,-0.01 0.01,-0.03 0.01,-0.04c0.01,-0.02 0.02,-0.03 0.02,-0.05c0.01,-0.01 0.01,-0.03 0.02,-0.04c0.01,-0.02 0.01,-0.03 0.02,-0.04c0.01,-0.02 0.02,-0.03 0.02,-0.05c0.01,-0.01 0.02,-0.02 0.03,-0.04c0.01,-0.01 0.02,-0.02 0.02,-0.04c0.01,-0.01 0.02,-0.02 0.03,-0.03c0.01,-0.02 0.02,-0.03 0.03,-0.04c0.01,-0.01 0.02,-0.02 0.04,-0.04c0.01,-0.01 0.02,-0.02 0.03,-0.03c0.01,-0.01 0.02,-0.02 0.03,-0.03c0.02,-0.01 0.03,-0.02 0.04,-0.03c0.01,-0.01 0.03,-0.02 0.04,-0.03c0.01,-0.01 0.03,-0.02 0.04,-0.03c0.01,-0.01 0.03,-0.01 0.04,-0.02c0.01,-0.01 0.03,-0.02 0.04,-0.02c0.01,-0.01 0.03,-0.02 0.04,-0.03c0.02,0 0.03,-0.01 0.05,-0.01c0.01,-0.01 0.03,-0.02 0.04,-0.02c0.02,-0.01 0.03,-0.01 0.05,-0.02c0.01,0 0.03,0 0.04,-0.01c0.02,0 0.03,-0.01 0.05,-0.01c0.01,0 0.03,0 0.05,-0.01c0.01,0 0.03,0 0.04,0l0.1,-0.01h2.42l0.75,-8h-2.5c-0.02,0 -0.04,0 -0.05,0c-0.02,0 -0.03,0 -0.05,0c-0.01,0 -0.03,0 -0.05,-0.01c-0.01,0 -0.03,0 -0.04,0c-0.02,-0.01 -0.03,-0.01 -0.05,-0.01c-0.01,-0.01 -0.03,-0.01 -0.05,-0.02c-0.01,0 -0.03,-0.01 -0.04,-0.01c-0.02,-0.01 -0.03,-0.01 -0.05,-0.02c-0.01,0 -0.02,-0.01 -0.04,-0.02c-0.01,0 -0.03,-0.01 -0.04,-0.02c-0.02,-0.01 -0.03,-0.01 -0.04,-0.02c-0.02,-0.01 -0.03,-0.02 -0.04,-0.03c-0.02,0 -0.03,-0.01 -0.04,-0.02c-0.02,-0.01 -0.03,-0.02 -0.04,-0.03c-0.01,-0.01 -0.03,-0.02 -0.04,-0.03c-0.01,-0.01 -0.02,-0.02 -0.03,-0.03c-0.01,-0.01 -0.03,-0.03 -0.04,-0.04c-0.01,-0.01 -0.02,-0.02 -0.03,-0.03c-0.01,-0.01 -0.02,-0.03 -0.03,-0.04c-0.01,-0.01 -0.02,-0.02 -0.03,-0.04c-0.01,-0.01 -0.02,-0.02 -0.02,-0.04c-0.01,-0.01 -0.02,-0.02 -0.03,-0.04c-0.01,-0.01 -0.01,-0.02 -0.02,-0.04c-0.01,-0.01 -0.02,-0.03 -0.02,-0.04c-0.01,-0.02 -0.02,-0.03 -0.02,-0.04c-0.01,-0.02 -0.01,-0.03 -0.02,-0.05c0,-0.01 -0.01,-0.03 -0.01,-0.04c-0.01,-0.02 -0.01,-0.04 -0.02,-0.05c0,-0.02 0,-0.03 -0.01,-0.05c0,-0.01 0,-0.03 0,-0.04c-0.01,-0.02 -0.01,-0.04 -0.01,-0.05c0,-0.02 0,-0.03 0,-0.05c0,-0.01 0,-0.03 0,-0.05c0,-0.01 0,-0.03 0,-0.04c0,-0.02 0,-0.04 0,-0.05c0,-0.02 0,-0.03 0.01,-0.05c0,-0.01 0,-0.03 0,-0.05c0.01,-0.01 0.01,-0.03 0.01,-0.04c0.01,-0.02 0.01,-0.03 0.02,-0.05c0,-0.01 0.01,-0.03 0.01,-0.04c0.01,-0.02 0.01,-0.03 0.02,-0.05c0,-0.01 0.01,-0.03 0.02,-0.04c0,-0.02 0.01,-0.03 0.02,-0.04c0,-0.02 0.01,-0.03 0.02,-0.05c0.01,-0.01 0.02,-0.02 0.02,-0.04c0.01,-0.01 0.02,-0.02 0.03,-0.04c0.01,-0.01 0.02,-0.02 0.03,-0.03c0.01,-0.02 0.02,-0.03 0.03,-0.04c0.01,-0.01 0.02,-0.02 0.03,-0.04c0.01,-0.01 0.02,-0.02 0.04,-0.03c0.01,-0.01 0.02,-0.02 0.03,-0.03c0.01,-0.01 0.03,-0.02 0.04,-0.03c0.01,-0.01 0.02,-0.02 0.04,-0.03c0.01,-0.01 0.02,-0.02 0.04,-0.03c0.01,-0.01 0.02,-0.01 0.04,-0.02c0.01,-0.01 0.02,-0.02 0.04,-0.02c0.01,-0.01 0.03,-0.02 0.04,-0.03c0.01,0 0.03,-0.01 0.04,-0.01c0.02,-0.01 0.03,-0.02 0.05,-0.02c0.01,-0.01 0.03,-0.01 0.04,-0.02c0.02,0 0.03,0 0.05,-0.01c0.01,0 0.03,-0.01 0.05,-0.01c0.01,0 0.03,0 0.04,-0.01c0.02,0 0.03,0 0.05,0l0.1,-0.01h2.69l0.44,-4.66h-1.8c-0.02,0 -0.03,0 -0.05,0c-0.01,-0.01 -0.03,-0.01 -0.05,-0.01c-0.01,0 -0.03,0 -0.04,0c-0.02,-0.01 -0.03,-0.01 -0.05,-0.01c-0.02,0 -0.03,-0.01 -0.05,-0.01c-0.01,-0.01 -0.03,-0.01 -0.04,-0.01c-0.02,-0.01 -0.03,-0.01 -0.05,-0.02c-0.01,0 -0.03,-0.01 -0.04,-0.02c-0.02,0 -0.03,-0.01 -0.05,-0.01c-0.01,-0.01 -0.02,-0.02 -0.04,-0.02c-0.01,-0.01 -0.03,-0.02 -0.04,-0.03c-0.01,-0.01 -0.03,-0.01 -0.04,-0.02c-0.01,-0.01 -0.03,-0.02 -0.04,-0.03c-0.01,-0.01 -0.03,-0.02 -0.04,-0.03c-0.01,-0.01 -0.02,-0.02 -0.03,-0.03c-0.02,-0.01 -0.03,-0.02 -0.04,-0.03c-0.01,-0.01 -0.02,-0.02 -0.03,-0.03c-0.01,-0.01 -0.03,-0.03 -0.04,-0.04c-0.01,-0.01 -0.02,-0.02 -0.03,-0.04c-0.01,-0.01 -0.02,-0.02 -0.02,-0.03c-0.01,-0.02 -0.02,-0.03 -0.03,-0.04c-0.01,-0.02 -0.02,-0.03 -0.03,-0.04c0,-0.02 -0.01,-0.03 -0.02,-0.04c-0.01,-0.02 -0.01,-0.03 -0.02,-0.05c-0.01,-0.01 -0.01,-0.03 -0.02,-0.04c0,-0.02 -0.01,-0.03 -0.01,-0.05c-0.01,-0.01 -0.01,-0.03 -0.02,-0.04c0,-0.02 -0.01,-0.03 -0.01,-0.05c-0.01,-0.01 -0.01,-0.03 -0.01,-0.04c0,-0.02 -0.01,-0.03 -0.01,-0.05c0,-0.02 0,-0.03 -0.01,-0.05c0,-0.01 0,-0.03 0,-0.05c0,-0.01 0,-0.03 0,-0.04c0,-0.01997 0,-0.02997 0,-0.04997c0,-0.02 0,-0.03 0,-0.05c0.01,-0.01 0.01,-0.03 0.01,-0.05c0,-0.01 0,-0.03 0.01,-0.04c0,-0.02 0,-0.03 0.01,-0.05c0,-0.01 0.01,-0.03 0.01,-0.04c0,-0.02 0.01,-0.03 0.01,-0.05c0.01,-0.01 0.02,-0.03 0.02,-0.04c0.01,-0.02 0.01,-0.03 0.02,-0.05c0.01,-0.01 0.01,-0.03 0.02,-0.04c0.01,-0.01 0.02,-0.03 0.02,-0.04c0.01,-0.02 0.02,-0.03 0.03,-0.04c0.01,-0.02 0.02,-0.03 0.02,-0.04c0.01,-0.02 0.02,-0.03 0.03,-0.04c0.01,-0.01 0.02,-0.03 0.03,-0.04c0.01,-0.01 0.02,-0.02 0.04,-0.03c0.01,-0.01 0.02,-0.03 0.03,-0.04c0.01,-0.01 0.02,-0.02 0.03,-0.03c0.02,-0.01 0.03,-0.02 0.04,-0.03c0.01,-0.01 0.03,-0.02 0.04,-0.03c0.01,-0.01 0.03,-0.02 0.04,-0.02c0.01,-0.01 0.03,-0.02 0.04,-0.03c0.01,-0.01 0.03,-0.01 0.04,-0.02c0.01,-0.01 0.03,-0.02 0.04,-0.02c0.02,-0.01 0.03,-0.02 0.05,-0.02c0.01,-0.01 0.03,-0.01 0.04,-0.02c0.02,0 0.03,-0.01 0.05,-0.01c0.01,-0.01 0.03,-0.01 0.04,-0.01c0.02,-0.01 0.03,-0.01 0.05,-0.02c0.01,0 0.03,0 0.05,0c0.01,-0.01 0.03,-0.01 0.04,-0.01h0.1h1.98l0.36,-3.76c0,-0.02 0,-0.03 0,-0.05c0,-0.01 0.01,-0.02 0.01,-0.04c0,-0.01 0,-0.03 0.01,-0.04c0,-0.02 0,-0.03 0.01,-0.04c0,-0.02 0.01,-0.03 0.01,-0.04c0,-0.02 0.01,-0.03 0.01,-0.05c0.01,-0.01 0.01,-0.02 0.02,-0.04c0.01,-0.01 0.01,-0.02 0.02,-0.03c0,-0.02 0.01,-0.03 0.02,-0.04c0,-0.02 0.01,-0.03 0.02,-0.04c0.01,-0.01 0.01,-0.03 0.02,-0.04c0.01,-0.01 0.02,-0.02 0.02,-0.03c0.01,-0.02 0.02,-0.03 0.03,-0.04c0.01,-0.01 0.02,-0.02 0.03,-0.03c0.01,-0.01 0.02,-0.02 0.03,-0.04c0.01,-0.01 0.02,-0.02 0.03,-0.03c0.01,-0.01 0.02,-0.02 0.03,-0.03c0.01,-0.01 0.02,-0.02 0.03,-0.02c0.01,-0.01 0.02,-0.02 0.03,-0.03c0.01,-0.01 0.03,-0.02 0.04,-0.03c0.01,-0.01 0.02,-0.01 0.03,-0.02c0.02,-0.01 0.03,-0.02 0.04,-0.02c0.01,-0.01 0.02,-0.02 0.04,-0.02c0.01,-0.01 0.02,-0.02 0.04,-0.02c0.01,-0.01 0.02,-0.02 0.04,-0.02c0.01,-0.01 0.02,-0.01 0.04,-0.02c0.01,0 0.02,-0.01 0.04,-0.01c0.01,-0.01 0.02,-0.01 0.04,-0.01c0.01,-0.01 0.03,-0.01 0.04,-0.01c0.01,-0.01 0.03,-0.01 0.04,-0.01c0.02,-0.01 0.03,-0.01 0.04,-0.01c0.02,0 0.03,0 0.05,-0.01h0.09zM9.1805,17.6633l-0.75,8h3.24v-8zM14.9205,16.9733v0l-0.2,0.14l-1.05,0.74v2.81h3v-1.33c0,-0.01 0,-0.02 0,-0.03c0,-0.01 0,-0.02 0,-0.03c0,-0.01 0,-0.02 0,-0.03c0,-0.01 0.01,-0.02 0.01,-0.04c0,-0.01 0,-0.02 0,-0.03c0.01,-0.01 0.01,-0.02 0.01,-0.03c0.01,-0.01 0.01,-0.02 0.01,-0.03c0.01,-0.01 0.01,-0.02 0.01,-0.03c0.01,-0.01 0.01,-0.02 0.02,-0.02c0,-0.01 0,-0.02 0.01,-0.03c0,-0.01 0.01,-0.02 0.01,-0.03c0.01,-0.01 0.02,-0.02 0.02,-0.03c0.01,-0.01 0.01,-0.02 0.02,-0.02c0,-0.01 0.01,-0.02 0.02,-0.03c0,-0.01 0.01,-0.02 0.02,-0.02c0,-0.01 0.01,-0.02 0.02,-0.03c0.01,0 0.01,-0.01 0.02,-0.02c0.01,-0.01 0.02,-0.01 0.02,-0.02c0.01,-0.01 0.02,-0.01 0.03,-0.02c0.01,-0.01 0.01,-0.01 0.02,-0.02c0.01,-0.01 0.02,-0.01 0.03,-0.02c0.01,0 0.02,-0.01 0.03,-0.01c0,-0.01 0.01,-0.01 0.02,-0.02c0.01,0 0.02,-0.01 0.03,-0.01c0.01,-0.01 0.02,-0.01 0.03,-0.02c0.01,0 0.02,0 0.03,-0.01c0.01,0 0.02,0 0.03,-0.01c0.01,0 0.02,0 0.03,-0.01c0.01,0 0.02,0 0.03,0c0.01,0 0.02,-0.01 0.03,-0.01c0.01,0 0.02,0 0.03,0c0.01,0 0.02,0 0.03,0c0.01,-0.01 0.02,-0.01 0.04,-0.01c0.01,0 0.02,0 0.03,0c0.01,0 0.02,0.01 0.03,0.01c0.01,0 0.02,0 0.03,0c0.01,0 0.02,0 0.03,0c0.01,0.01 0.02,0.01 0.03,0.01c0.01,0 0.02,0.01 0.03,0.01c0.01,0 0.02,0 0.03,0.01c0.01,0 0.02,0 0.03,0.01c0.01,0 0.02,0.01 0.03,0.01c0.01,0 0.02,0.01 0.03,0.01c0.01,0.01 0.02,0.01 0.03,0.02c0.01,0 0.02,0.01 0.02,0.01c0.01,0.01 0.02,0.02 0.03,0.02c0.01,0.01 0.02,0.01 0.03,0.02c0,0.01 0.01,0.01 0.02,0.02c0.01,0.01 0.02,0.01 0.02,0.02c0.01,0.01 0.02,0.01 0.03,0.02c0,0.01 0.01,0.02 0.02,0.03c0.01,0 0.01,0.01 0.02,0.02c0.01,0.01 0.01,0.02 0.02,0.02c0,0.01 0.01,0.02 0.02,0.03c0,0.01 0.01,0.02 0.01,0.03c0.01,0.01 0.01,0.01 0.02,0.02c0,0.01 0.01,0.02 0.01,0.03c0.01,0.01 0.01,0.02 0.02,0.03c0,0.01 0,0.02 0.01,0.03c0,0.01 0.01,0.02 0.01,0.03c0,0.01 0,0.02 0.01,0.03c0,0.01 0,0.02 0,0.03c0.01,0.01 0.01,0.02 0.01,0.03c0,0.01 0,0.02 0,0.03l0.01,0.08v4c0,0.01 0,0.02 0,0.03c0,0.01 0,0.02 0,0.03c0,0.01 -0.01,0.02 -0.01,0.03c0,0.01 0,0.02 0,0.04c0,0.01 -0.01,0.02 -0.01,0.03c0,0.01 0,0.02 -0.01,0.03c0,0.01 0,0.02 -0.01,0.03c0,0.01 0,0.02 -0.01,0.03c0,0.01 -0.01,0.02 -0.01,0.02c0,0.01 -0.01,0.02 -0.01,0.03c-0.01,0.01 -0.01,0.02 -0.02,0.03c0,0.01 -0.01,0.02 -0.02,0.03c0,0.01 -0.01,0.02 -0.01,0.02c-0.01,0.01 -0.01,0.02 -0.02,0.03c-0.01,0.01 -0.01,0.02 -0.02,0.02c-0.01,0.01 -0.02,0.02 -0.02,0.03c-0.01,0 -0.02,0.01 -0.02,0.02c-0.01,0.01 -0.02,0.01 -0.03,0.02c-0.01,0.01 -0.01,0.01 -0.02,0.02c-0.01,0.01 -0.02,0.01 -0.03,0.02c-0.01,0.01 -0.01,0.01 -0.02,0.02c-0.01,0 -0.02,0.01 -0.03,0.01c-0.01,0.01 -0.02,0.01 -0.03,0.02c-0.01,0 -0.02,0.01 -0.03,0.01c0,0.01 -0.01,0.01 -0.02,0.02c-0.01,0 -0.02,0 -0.03,0.01c-0.01,0 -0.02,0 -0.03,0.01c-0.01,0 -0.02,0 -0.03,0.01c-0.01,0 -0.02,0 -0.03,0c-0.01,0 -0.03,0.01 -0.04,0.01c-0.01,0 -0.02,0 -0.03,0c-0.01,0 -0.02,0 -0.03,0c-0.01,0.01 -0.02,0.01 -0.03,0.01c-0.01,0 -0.02,0 -0.03,0c-0.01,0 -0.02,-0.01 -0.03,-0.01c-0.01,0 -0.02,0 -0.03,0c-0.01,0 -0.02,0 -0.03,0c-0.02,-0.01 -0.03,-0.01 -0.04,-0.01c-0.01,0 -0.02,-0.01 -0.03,-0.01c-0.01,0 -0.02,0 -0.03,-0.01c-0.01,0 -0.02,0 -0.03,-0.01c-0.01,0 -0.02,-0.01 -0.03,-0.01c0,0 -0.01,-0.01 -0.02,-0.01c-0.01,-0.01 -0.02,-0.01 -0.03,-0.02c-0.01,0 -0.02,-0.01 -0.03,-0.01c-0.01,-0.01 -0.02,-0.02 -0.02,-0.02c-0.01,-0.01 -0.02,-0.01 -0.03,-0.02c-0.01,-0.01 -0.02,-0.01 -0.03,-0.02c0,-0.01 -0.01,-0.01 -0.02,-0.02c-0.01,-0.01 -0.01,-0.01 -0.02,-0.02c-0.01,-0.01 -0.02,-0.02 -0.02,-0.03c-0.01,0 -0.02,-0.01 -0.02,-0.02c-0.01,-0.01 -0.02,-0.02 -0.02,-0.02c-0.01,-0.01 -0.02,-0.02 -0.02,-0.03c-0.01,-0.01 -0.01,-0.02 -0.02,-0.03c0,-0.01 -0.01,-0.01 -0.01,-0.02c-0.01,-0.01 -0.01,-0.02 -0.02,-0.03c0,-0.01 -0.01,-0.02 -0.01,-0.03c0,-0.01 -0.01,-0.02 -0.01,-0.03c-0.01,-0.01 -0.01,-0.02 -0.01,-0.03c-0.01,-0.01 -0.01,-0.02 -0.01,-0.03c0,-0.01 -0.01,-0.02 -0.01,-0.03c0,-0.01 0,-0.02 0,-0.03c-0.01,-0.01 -0.01,-0.02 -0.01,-0.03v-0.08v-1.33h-3v3.66h11.33v-3.66h-3v1.33c0,0.01 0,0.02 0,0.03c0,0.01 0,0.02 0,0.03c0,0.01 -0.01,0.02 -0.01,0.03c0,0.01 0,0.02 0,0.04c0,0.01 -0.01,0.02 -0.01,0.03c0,0.01 0,0.02 -0.01,0.03c0,0.01 0,0.02 -0.01,0.03c0,0.01 0,0.02 -0.01,0.03c0,0.01 -0.01,0.02 -0.01,0.02c0,0.01 -0.01,0.02 -0.01,0.03c-0.01,0.01 -0.01,0.02 -0.02,0.03c0,0.01 -0.01,0.02 -0.02,0.03c0,0.01 -0.01,0.02 -0.01,0.02c-0.01,0.01 -0.01,0.02 -0.02,0.03c-0.01,0.01 -0.01,0.02 -0.02,0.02c-0.01,0.01 -0.02,0.02 -0.02,0.03c-0.01,0 -0.02,0.01 -0.02,0.02c-0.01,0.01 -0.02,0.01 -0.03,0.02c-0.01,0.01 -0.01,0.01 -0.02,0.02c-0.01,0.01 -0.02,0.01 -0.03,0.02c-0.01,0.01 -0.01,0.01 -0.02,0.02c-0.01,0 -0.02,0.01 -0.03,0.01c-0.01,0.01 -0.02,0.01 -0.03,0.02c-0.01,0 -0.02,0.01 -0.03,0.01c0,0.01 -0.01,0.01 -0.02,0.02c-0.01,0 -0.02,0 -0.03,0.01c-0.01,0 -0.02,0 -0.03,0.01c-0.01,0 -0.02,0 -0.03,0.01c-0.01,0 -0.02,0 -0.03,0c-0.01,0 -0.03,0.01 -0.04,0.01c-0.01,0 -0.02,0 -0.03,0c-0.01,0 -0.02,0 -0.03,0c-0.01,0.01 -0.02,0.01 -0.03,0.01c-0.01,0 -0.02,0 -0.03,0c-0.01,0 -0.02,-0.01 -0.03,-0.01c-0.01,0 -0.02,0 -0.03,0c-0.01,0 -0.02,0 -0.03,0c-0.02,-0.01 -0.03,-0.01 -0.04,-0.01c-0.01,0 -0.02,-0.01 -0.03,-0.01c-0.01,0 -0.02,0 -0.03,-0.01c-0.01,0 -0.02,0 -0.03,-0.01c-0.01,0 -0.02,-0.01 -0.03,-0.01c0,0 -0.01,-0.01 -0.02,-0.01c-0.01,-0.01 -0.02,-0.01 -0.03,-0.02c-0.01,0 -0.02,-0.01 -0.03,-0.01c-0.01,-0.01 -0.02,-0.02 -0.02,-0.02c-0.01,-0.01 -0.02,-0.01 -0.03,-0.02c-0.01,-0.01 -0.02,-0.01 -0.03,-0.02c0,-0.01 -0.01,-0.01 -0.02,-0.02c-0.01,-0.01 -0.01,-0.01 -0.02,-0.02c-0.01,-0.01 -0.02,-0.02 -0.02,-0.03c-0.01,0 -0.02,-0.01 -0.02,-0.02c-0.01,-0.01 -0.02,-0.02 -0.02,-0.02c-0.01,-0.01 -0.02,-0.02 -0.02,-0.03c-0.01,-0.01 -0.01,-0.02 -0.02,-0.03c0,-0.01 -0.01,-0.01 -0.01,-0.02c-0.01,-0.01 -0.01,-0.02 -0.02,-0.03c0,-0.01 -0.01,-0.02 -0.01,-0.03c0,-0.01 -0.01,-0.02 -0.01,-0.03c-0.01,-0.01 -0.01,-0.02 -0.01,-0.03c-0.01,-0.01 -0.01,-0.02 -0.01,-0.03c0,-0.01 -0.01,-0.02 -0.01,-0.03c0,-0.01 0,-0.02 0,-0.03c-0.01,-0.01 -0.01,-0.02 -0.01,-0.03v-0.08v-4c0,-0.01 0,-0.02 0,-0.03c0,-0.01 0,-0.02 0,-0.03c0,-0.01 0,-0.02 0,-0.03c0,-0.01 0.01,-0.02 0.01,-0.04c0,-0.01 0,-0.02 0,-0.03c0.01,-0.01 0.01,-0.02 0.01,-0.03c0.01,-0.01 0.01,-0.02 0.01,-0.03c0.01,-0.01 0.01,-0.02 0.01,-0.03c0.01,-0.01 0.01,-0.02 0.02,-0.02c0,-0.01 0,-0.02 0.01,-0.03c0,-0.01 0.01,-0.02 0.01,-0.03c0.01,-0.01 0.02,-0.02 0.02,-0.03c0.01,-0.01 0.01,-0.02 0.02,-0.02c0,-0.01 0.01,-0.02 0.02,-0.03c0,-0.01 0.01,-0.02 0.02,-0.02c0,-0.01 0.01,-0.02 0.02,-0.03c0.01,0 0.01,-0.01 0.02,-0.02c0.01,-0.01 0.02,-0.01 0.02,-0.02c0.01,-0.01 0.02,-0.01 0.03,-0.02c0.01,-0.01 0.01,-0.01 0.02,-0.02c0.01,-0.01 0.02,-0.01 0.03,-0.02c0.01,0 0.02,-0.01 0.03,-0.01c0,-0.01 0.01,-0.01 0.02,-0.02c0.01,0 0.02,-0.01 0.03,-0.01c0.01,-0.01 0.02,-0.01 0.03,-0.02c0.01,0 0.02,0 0.03,-0.01c0.01,0 0.02,0 0.03,-0.01c0.01,0 0.02,0 0.03,-0.01c0.01,0 0.02,0 0.03,0c0.01,0 0.02,-0.01 0.03,-0.01c0.01,0 0.02,0 0.03,0c0.01,0 0.02,0 0.03,0c0.01,-0.01 0.02,-0.01 0.04,-0.01c0.01,0 0.02,0 0.03,0c0.01,0 0.02,0.01 0.03,0.01c0.01,0 0.02,0 0.03,0c0.01,0 0.02,0 0.03,0c0.01,0.01 0.02,0.01 0.03,0.01c0.01,0 0.02,0.01 0.03,0.01c0.01,0 0.02,0 0.03,0.01c0.01,0 0.02,0 0.03,0.01c0.01,0 0.02,0.01 0.03,0.01c0.01,0 0.02,0.01 0.03,0.01c0.01,0.01 0.02,0.01 0.03,0.02c0.01,0 0.02,0.01 0.02,0.01c0.01,0.01 0.02,0.02 0.03,0.02c0.01,0.01 0.02,0.01 0.03,0.02c0,0.01 0.01,0.01 0.02,0.02c0.01,0.01 0.02,0.01 0.02,0.02c0.01,0.01 0.02,0.01 0.03,0.02c0,0.01 0.01,0.02 0.02,0.03c0.01,0 0.01,0.01 0.02,0.02c0.01,0.01 0.01,0.02 0.02,0.02c0,0.01 0.01,0.02 0.02,0.03c0,0.01 0.01,0.02 0.01,0.03c0.01,0.01 0.01,0.01 0.02,0.02c0,0.01 0.01,0.02 0.01,0.03c0.01,0.01 0.01,0.02 0.02,0.03c0,0.01 0,0.02 0.01,0.03c0,0.01 0.01,0.02 0.01,0.03c0,0.01 0,0.02 0.01,0.03c0,0.01 0,0.02 0,0.03c0.01,0.01 0.01,0.02 0.01,0.03c0,0.01 0,0.02 0,0.03l0.01,0.08v1.33h3v-2.81l-5.67,-3.97zM9.8105,11.0033l-0.44,4.66h3.93l-0.44,-4.66zM10.2405,6.33333l-0.25,2.67h2.68l-0.25,-2.67z">
      </path>
    </g>
  </g>
  <defs>
    <rect id="path_0" x="0" y="0" width="32" height="32" />
  </defs>
</svg>