<svg xmlns="http://www.w3.org/2000/svg" xmlns:xlink="http://www.w3.org/1999/xlink" width="13.095626831054688" height="13.968547821044922" viewBox="0 0 13.095626831054688 13.968547821044922" fill="none"><path id="路径 1" fill-rule="evenodd" style="fill:#8B91A1" opacity="1" d="M11.3495 4.36517L10.4764 4.36517L10.4764 3.49205C10.4764 1.55382 8.65372 0 6.54777 0C4.44192 0 2.6192 1.55382 2.6192 3.49205L2.6192 4.36517L1.74616 4.36517C0.813414 4.36517 0 5.25427 0 6.11123L0 12.2226C0 13.0811 0.815164 13.9685 1.74616 13.9685L11.3495 13.9685C12.2821 13.9685 13.0956 13.0794 13.0956 12.2226L13.0956 6.11125C13.0956 4.43117 11.3495 4.36517 11.3495 4.36517ZM3.49217 3.49205C3.49217 1.95211 4.86344 0.87312 6.5478 0.87312C8.2323 0.87312 9.6035 1.95211 9.6035 3.49205L9.6035 4.36517L3.49217 4.36517L3.49217 3.49205ZM12.2226 12.2226C12.2226 12.527 11.6785 13.0955 11.3495 13.0955L1.74619 13.0955C1.41538 13.0955 0.873133 12.5254 0.873133 12.2226L0.873133 6.11125C0.873133 5.80681 1.41704 5.23822 1.74619 5.23822L11.3495 5.23822C11.6803 5.23822 12.2226 5.80839 12.2226 6.11125L12.2226 12.2226Z"></path></svg>