<svg xmlns="http://www.w3.org/2000/svg" xmlns:xlink="http://www.w3.org/1999/xlink" width="200" height="140.001220703125" viewBox="0 0 200 140.001220703125" fill="none"><g opacity="1"  transform="translate(0 0.001220703125)  rotate(0)"><g opacity="1"  transform="translate(13 0)  rotate(0)"><path id="圆形 3" fill-rule="evenodd" fill="url(#linear_0)" opacity="1" d="M86.05 92.635C38.53 92.635 0 103.235 0 116.315C0 129.395 38.53 139.995 86.05 139.995C133.58 139.995 172.1 129.395 172.1 116.315C172.1 103.235 133.58 92.635 86.05 92.635Z"></path><path id="矩形 1" fill-rule="evenodd" fill="url(#linear_1)" opacity="1" d="M36.8799 89.2331L58.7199 89.2331L58.7199 57.5732L36.8799 57.5732L36.8799 89.2331Z"></path><g opacity="1"  transform="translate(105.77734375 0)  rotate(0)"><path id="路径 2" fill-rule="evenodd" style="fill:#FFC3CD" opacity="1" d="M12.5062 30.6326C11.4652 30.637 10.2618 29.9022 8.99322 29.1399C7.43542 27.5387 2.53181 25.7586 1.31708 26.4987C0.10236 27.2387 1.67466 27.7285 1.67466 27.7285C1.67466 27.7285 6.80438 29.8895 5.82318 30.2216C4.52134 30.4659 4.52275 30.9101 4.51747 31.0936C7.39744 32.8243 11.1634 32.9641 12.2799 32.97L12.5062 30.6326Z"></path><path id="路径 1" fill-rule="evenodd" style="fill:#FFC3CD" opacity="1" d="M45.8705 3.02124L46.8505 4.69123L47.9805 7.95122L46.8505 10.6212L46.8505 19.4812L45.0005 20.7912L41.4805 19.4812L41.4805 13.9912C41.4805 13.9912 39.2705 12.7712 39.0905 12.2512L39.0905 4.69123L45.8705 3.02124Z"></path><path id="路径 4" fill-rule="evenodd" style="fill:#454545" opacity="1" d="M39.051 6.37993C38.571 5.96993 37.791 3.49996 39.051 1.71998C40.141 0.199998 43.511 -0.709992 46.131 0.699992C48.121 1.77998 48.791 3.65996 48.791 5.96993C48.791 8.28991 48.471 9.81989 47.181 10.4899C45.891 11.1699 45.701 10.4899 45.701 10.4899C45.701 10.4899 45.321 9.81989 45.701 9.81989C46.071 9.81989 47.181 8.44991 47.181 7.60992C47.181 6.76993 46.561 6.96992 46.131 7.47992C45.701 7.98991 45.431 8.00991 45.321 8.01991C45.321 7.60992 45.321 6.34993 45.321 5.16994C45.321 3.97996 44.221 3.44996 43.111 4.59995C42.011 5.75994 39.941 5.34994 39.051 5.16994L39.051 6.37993Z"></path><path id="路径 3" fill-rule="evenodd" style="fill:#454545" opacity="1" d="M48.1664 115.053C48.4264 116.833 48.1864 117.533 47.9164 117.843L47.9164 118.243L46.6564 118.243C46.6764 117.823 46.6064 116.833 46.1064 116.833C45.7564 116.833 45.7264 117.453 45.3064 117.843C44.8864 118.243 43.7464 118.393 42.7964 118.393C42.2064 118.393 41.3264 118.393 41.5564 117.453C41.6964 116.853 43.2964 116.833 44.0864 116.833C44.8764 116.833 45.8864 115.583 46.1064 115.053L48.1664 115.053Z"></path><path id="路径 3" fill-rule="evenodd" style="fill:#454545" opacity="1" d="M59.727 110.473C61.066 111.674 61.3296 112.365 61.3206 112.776L61.5766 113.084L60.6085 113.89C60.355 113.555 59.6676 112.839 59.2835 113.159C59.0145 113.383 59.3883 113.878 59.3152 114.447C59.2485 115.023 58.4686 115.868 57.7387 116.476C57.2853 116.854 56.6092 117.417 56.1843 116.547C55.9078 115.997 57.1244 114.957 57.7314 114.452C58.3384 113.946 58.3144 112.339 58.1442 111.791L59.727 110.473Z"></path><path id="路径 20" fill-rule="evenodd" style="fill:#2A2F4D" opacity="1" d="M35.4996 53.6272L34.1596 82.1172C34.1496 82.3772 34.2296 82.6272 34.3997 82.8172L46.1597 96.2872L45.8397 114.977L48.6897 115.147L50.0797 102.887L58.1197 112.097L59.8897 110.527L50.0797 93.5972L53.4797 53.6272L35.4996 53.6272ZM41.8197 82.8472L45.2697 86.8672L45.2697 61.3272C45.2697 61.0072 44.9197 60.8172 44.6497 60.9872L44.4297 61.1172C44.1697 61.2772 44.0097 61.5472 43.9697 61.8472L41.5797 82.0772C41.5497 82.3572 41.6397 82.6372 41.8197 82.8472Z"></path><path id="路径 5" fill-rule="evenodd" style="fill:#3F5DED" opacity="1" d="M26.3853 35.5245C28.7553 31.7945 32.2153 19.1546 36.3653 18.3746C39.7553 17.5646 42.0753 19.7446 43.6153 19.7446C45.8053 18.7246 50.0753 17.6746 53.0653 17.6746C56.0553 17.6746 57.0653 18.3746 58.0953 19.7446C59.1153 21.1146 66.3553 34.8345 66.3553 34.8345L67.7853 37.4745C68.0153 37.9045 67.9053 38.4445 67.5153 38.7445L54.4253 48.7845C54.4253 48.7845 54.7453 43.9445 54.7453 43.9445C54.7453 43.9445 61.1353 38.2545 61.1353 37.1445C61.1353 36.2245 57.3453 32.8845 56.1053 31.8145C55.9353 31.6745 55.6853 31.7845 55.6653 31.9945L53.5353 53.9945L35.4953 53.9945L35.4953 35.5845C35.4953 35.2945 35.1553 35.1345 34.9353 35.3345C33.3053 36.9345 30.6953 40.4945 29.1453 41.9045C27.3953 43.4945 25.9253 42.4745 25.0553 41.9045C24.1853 41.3345 10.0853 32.8745 10.0853 32.8745L10.9653 29.8545L26.1353 35.6045C26.2253 35.6345 26.3253 35.6045 26.3853 35.5245Z"></path><path id="路径 21" fill-rule="evenodd" style="fill:#3F5DED" opacity="1" d="M54.0498 43.9434L53.5498 49.6234L54.6398 48.5334L54.8998 43.9434L54.0498 43.9434Z"></path></g><path id="路径 7" fill-rule="evenodd" style="fill:#A6A6A6" opacity="1" d="M56.3488 59.4201L55.5088 62.6602L77.3488 67.3002L77.3488 54.3501L56.3488 59.4201Z"></path><path id="路径 8" fill-rule="evenodd" style="fill:#CCCCCC" opacity="1" d="M76.7939 54.7024L76.7939 66.7925L114.844 63.7125L120.414 57.4324L76.7939 54.7024Z"></path><g opacity="1"  transform="translate(56.658203125 57.744384765625)  rotate(0)"><g filter="url(#filter_15)"></g><path id="路径 9" fill-rule="evenodd" fill="url(#linear_2)" opacity="1" d="M41.2363 59.8397L63.3863 54.8797L63.3863 -0.000244141L41.2363 4.96975L41.2363 59.8397Z"></path><path id="路径 10" fill-rule="evenodd" fill="url(#linear_3)" opacity="1" d="M41.28 59.7633L41.28 5.29337L0 1.95337L0 56.8333L41.28 59.7633Z"></path></g><path id="路径 11" fill-rule="evenodd" style="fill:#FFFFFF" opacity="1" d="M87.2991 74.3961L97.6591 63.0961L56.2791 59.7161L44.5791 71.4961L87.2991 74.3961Z"></path><path id="路径 12" fill-rule="evenodd" style="fill:#DDDDDD" opacity="1" d="M97.7363 62.9327L107.316 74.4826L128.676 69.2126L120.356 57.7527L97.7363 62.9327Z"></path><path id="路径 13" fill-rule="evenodd" style="fill:#858585" opacity="1" d="M103.115 47.8153L120.625 35.8354L101.565 39.9254L103.115 47.8153Z"></path><path id="路径 14" fill-rule="evenodd" style="fill:#D1D1D1" opacity="1" d="M101.801 40.6454L120.681 35.8354L97.3311 36.9354L101.801 40.6454Z"></path><path id="路径 15" fill-rule="evenodd" style="fill:#A6A6A6" opacity="1" d="M109.46 43.5558L103.17 41.9558L103.17 47.9958L109.46 43.5558Z"></path><path id="路径 16" fill-rule="evenodd" style="fill:#D4D4D4" opacity="1" d="M103.146 41.958L110.956 47.848L120.607 35.8479L103.146 41.958Z"></path><path  id="路径 17" style="fill:#636363; opacity:1;" d="M91.5391 55.2229M91.5391 55.2229Q92.0331 55.3405 92.6785 55.3104Q93.4061 55.2764 94.0419 55.0582Q95.6406 54.5095 95.9375 53.0881Q96.2598 51.5654 95.673 50.6778Q94.9861 49.6388 93.1044 49.6388Q91.4127 49.6388 89.2926 50.7224L89.2244 50.5888L89.362 50.6484L89.2244 50.5888L89.362 50.6484Q88.6959 52.1861 89.3699 53.542Q89.6806 54.1671 90.2353 54.6024Q90.8042 55.0489 91.5389 55.2228L91.5391 55.2229ZM91.4698 55.5148Q90.6709 55.3257 90.05 54.8384Q89.4422 54.3613 89.1013 53.6756Q88.7554 52.9797 88.743 52.1846Q88.73 51.3527 89.0867 50.5292L89.1081 50.4798L89.0867 50.5292L89.1081 50.4798L89.1561 50.4553Q91.3404 49.3388 93.1044 49.3388Q95.1474 49.3388 95.9233 50.5123Q96.5793 51.5047 96.2312 53.1495Q95.8994 54.7379 94.1393 55.3419Q93.4629 55.5741 92.6925 55.6101Q92.0049 55.6422 91.4696 55.5147L91.4698 55.5148ZM77.3736 60.7177M77.3736 60.7177L77.3793 60.7115L77.385 60.7052Q80.3924 57.4083 82.4667 55.4651Q86.2113 51.957 89.1562 50.4552L89.2925 50.7224Q86.3854 52.205 82.6718 55.684Q80.6061 57.6192 77.6066 60.9074L77.6009 60.9136L77.5952 60.9199L77.3736 60.7177ZM89.0868 50.5291M89.0868 50.5291Q89.57 49.4153 90.6672 48.4618Q91.8695 47.4172 93.6976 46.67Q94.7437 46.2466 95.4376 46.038Q96.2916 45.7813 97.232 45.6478Q98.9866 45.3988 103.174 45.3988L103.174 45.6988Q99.0078 45.6988 97.2742 45.9448Q96.3563 46.0751 95.524 46.3253Q94.8433 46.5299 93.8111 46.9477Q92.0289 47.6761 90.864 48.6883Q89.8181 49.5971 89.362 50.6485L89.0868 50.5291Z"></path><path id="路径 18" fill-rule="evenodd" style="fill:#C5C5C5" opacity="1" d="M25.896 81.1449C19.196 85.9449 24.436 104.625 27.946 112.715C27.946 103.005 29.056 79.4549 25.896 81.1449Z"></path><path id="路径 18" fill-rule="evenodd" style="fill:#C5C5C5" opacity="1" d="M33.3099 90.604C29.5799 90.604 29.2599 105.164 30.7599 112.714C31.6599 106.814 35.6099 90.604 33.3099 90.604Z"></path><path id="路径 18" fill-rule="evenodd" style="fill:#C5C5C5" opacity="1" d="M38.3925 97.3879C34.3425 98.3279 32.8125 105.488 32.8125 112.708C33.7125 106.808 40.7025 97.3879 38.3925 97.3879Z"></path><path id="路径 19" fill-rule="evenodd" style="fill:#A6A6A6" opacity="1" d="M50.6079 114.97C48.2879 114.97 41.8879 112.32 39.3379 111.42C36.8279 110.54 30.8979 112.65 28.9579 112.65C27.0079 112.65 25.4479 110.2 22.7479 110.2C20.0479 110.2 17.7979 113.54 16.8379 114.97L50.6079 114.97Z"></path></g></g><defs><linearGradient id="linear_0" x1="39.28772039330331%" y1="0%" x2="40.28772039330331%" y2="100%" gradientUnits="objectBoundingBox"><stop offset="0" stop-color="#CCCCCC" stop-opacity="0" /><stop offset="1" stop-color="#CCCCCC" stop-opacity="0.62" /></linearGradient><linearGradient id="linear_1" x1="29.741202721228966%" y1="0%" x2="30.741202721228966%" y2="100%" gradientUnits="objectBoundingBox"><stop offset="0" stop-color="#CCCCCC" stop-opacity="0.4" /><stop offset="1" stop-color="#CCCCCC" stop-opacity="0" /></linearGradient><filter id="filter_15" x="0" y="0" width="67.3807373046875" height="64.84423828125" filterUnits="userSpaceOnUse" color-interpolation-filters="sRGB"><feFlood flood-opacity="0" result="feFloodId"/>
        <feColorMatrix in="SourceAlpha" type="matrix" values="0 0 0 0 0 0 0 0 0 0 0 0 0 0 0 0 0 0 127 0" result="hardAlpha"/>
        
        <feOffset dx="0" dy="1"/>
        <feGaussianBlur stdDeviation="1"/>
         <feComposite in2="hardAlpha" operator="out"/>
        <feColorMatrix type="matrix" values="0 0 0 0 0 0 0 0 0 0 0 0 0 0 0 0 0 0 0.53 0"/>
        <feBlend mode="normal" in2="BackgroundImageFix" result="dropShadow_1"/>
        <feBlend mode="normal" in="SourceGraphic" in2="dropShadow_2" result="shape"/></filter><linearGradient id="linear_2" x1="0.01110481623871011%" y1="50%" x2="99.9888951837613%" y2="50%" gradientUnits="objectBoundingBox"><stop offset="0" stop-color="#C9C9C9" stop-opacity="1" /><stop offset="1" stop-color="#BDBDBD" stop-opacity="0.51" /></linearGradient><linearGradient id="linear_3" x1="-0.0000354855559579253%" y1="50%" x2="100.00003548555596%" y2="50%" gradientUnits="objectBoundingBox"><stop offset="0" stop-color="#E6E6E6" stop-opacity="1" /><stop offset="1" stop-color="#F0F0F0" stop-opacity="1" /></linearGradient></defs></svg>