<svg width="1em" height="1em" viewBox="0 0 16 16" fill="none" xmlns="http://www.w3.org/2000/svg">
  <g opacity="1" transform="translate(0 0)  rotate(0)">
    <g opacity="1" transform="translate(1 0)  rotate(0)">
      <g opacity="1" transform="translate(5.0859375 7.1475830078125)  rotate(0)">
        <path id="路径 4" fill-rule="evenodd" fill="url(#linear_0)" opacity="1" d="M0.39 8.01C0.5 8.07 0.61 8.12 0.75 8.12L3.3 8.23C3.77 8.26 4.25 8.07 4.58 7.73L8.44 3.88L8.77 0.59C8.77 0.36 8.72 0.17 8.58 0L7.68 0.08C7.71 0.89 6.46 1.31 6.46 1.31L0 7.76L0.39 8.01Z"></path>
      </g>
      <path id="路径 5" fill-rule="evenodd" fill="url(#linear_1)" opacity="1" d="M0.585938 10.1379L1.19594 11.0279L2.56594 12.4179C2.98594 12.8179 3.54594 13.0679 4.13594 13.0679L4.18594 13.0679C4.49594 13.0679 4.77594 12.9479 5.00594 12.7279L6.92594 10.8279L5.86594 10.8279C5.67594 10.8279 5.50594 10.7479 5.39594 10.6379L2.42594 7.67786L0.585938 10.1379Z"></path>
      <path id="路径 6" fill-rule="evenodd" style="fill:#FFFFFF" opacity="1" d="M11.5448 8.43076ZM10.5348 7.43076L11.5448 8.43076L12.3548 9.24076C12.7948 9.77076 13.2448 10.5208 13.2148 11.3308L13.6048 10.9408L13.5248 11.0308C13.8548 10.5508 13.9948 9.99076 13.9948 9.41076L13.9448 7.73076C13.9448 7.29076 13.7448 6.87076 13.4448 6.56076L12.9948 6.11076L11.6848 4.77076C10.7848 3.94076 9.38484 3.94076 8.52484 4.80076L8.21484 5.11076L10.5348 7.43076Z"></path>
      <path id="路径 7" fill-rule="evenodd" style="fill:#FFFFFF" opacity="1" d="M9.29922 8.37065L7.12922 6.17065L5.69922 7.59065L7.87922 9.80065L9.29922 8.37065Z"></path>
      <path id="路径 8" fill-rule="evenodd" fill="url(#linear_2)" opacity="1" d="M11.99 0L9.19 0.25L6.57 0.48C6.15 0.51 5.76 0.7 5.48 0.98L0.56 5.89C0.25 6.2 0.06 6.62 0.06 7.06L0 9.27C0 9.49 0.06 9.69 0.2 9.85L0.53 10.3C0.67 10.47 1.06 10.89 1.2 11.03L1.12 10.61C1.09 9.8 1.45 8.96 1.9 8.43L2.74 7.59L8.22 2.15C8.69 1.68 9.31 1.43 9.98 1.43C11.23 1.43 12.44 1.93 13.33 2.82L13.86 3.69L12.77 0.51C12.66 0.17 12.32 -0.03 11.99 0Z"></path>
    </g>
  </g>
  <defs>
    <linearGradient id="linear_0" x1="92.66422469652272%" y1="26.44508703046162%" x2="63.520727571141634%" y2="63.526%" gradientUnits="objectBoundingBox">
      <stop offset="0" stop-color="#FFFFFF" stop-opacity="0" />
      <stop offset="0.4925" stop-color="#FFFFFF" stop-opacity="0.24" />
      <stop offset="1" stop-color="#FFFFFF" stop-opacity="1" />
    </linearGradient>
    <linearGradient id="linear_1" x1="12.29368023275523%" y1="17.163%" x2="46.099001226616934%" y2="55.689%" gradientUnits="objectBoundingBox">
      <stop offset="0" stop-color="#FFFFFF" stop-opacity="0" />
      <stop offset="0.4257" stop-color="#FFFFFF" stop-opacity="0.24" />
      <stop offset="1" stop-color="#FFFFFF" stop-opacity="1" />
    </linearGradient>
    <linearGradient id="linear_2" x1="84.40359346926711%" y1="0.1537593731110331%" x2="6.069891681719173%" y2="104.87807332858674%" gradientUnits="objectBoundingBox">
      <stop offset="0" stop-color="#FFFFFF" stop-opacity="1" />
      <stop offset="0.3772" stop-color="#FFFFFF" stop-opacity="1" />
    </linearGradient>
  </defs>
</svg>