<?xml version="1.0" encoding="utf-8"?>
<!-- Generator: Adobe Illustrator 27.9.0, SVG Export Plug-In . SVG Version: 6.00 Build 0)  -->
<svg version="1.1" id="图层_1" xmlns="http://www.w3.org/2000/svg" xmlns:xlink="http://www.w3.org/1999/xlink" x="0px" y="0px"
	 viewBox="0 0 178.7 56" style="enable-background:new 0 0 178.7 56;" xml:space="preserve">
<style type="text/css">
	.st0{fill-rule:evenodd;clip-rule:evenodd;}
	.st1{fill:#0064FF;}
	.st2{fill:url(#SVGID_1_);}
	.st3{fill:#009BFF;}
	.st4{fill:url(#SVGID_00000031200607602821334270000011296637072514875780_);}
	.st5{fill:url(#SVGID_00000096030996701276169430000001687846418669036436_);}
	.st6{opacity:0.9;fill:url(#SVGID_00000042695945882711790880000010973100792852456368_);enable-background:new    ;}
	.st7{fill:#ABBDFF;}
	.st8{fill:#8094F9;}
	.st9{fill:#9BB9F9;}
	.st10{fill:#FFFFFF;}
	.st11{opacity:0.2;fill:#B7B7B7;}
	.st12{fill:url(#SVGID_00000045604203057072560100000018113273827083428788_);}
	.st13{opacity:0.9;fill:url(#SVGID_00000106124461492463984780000012797930509182593184_);}
	.st14{fill:url(#SVGID_00000088828420382958069560000018372326002277064114_);}
	.st15{fill:url(#SVGID_00000132802902708816638470000000920910633844863935_);}
	.st16{fill:url(#SVGID_00000044860491228180234240000012193586158295575964_);}
	.st17{fill:#465CE5;}
</style>
<g>
	<path class="st10" d="M97.1,12.6h5.7v32.5h-7.2V25.8l-7.3,10.5h-3.9L77,25.7v19.3h-7.1V12.6h5.9l10.7,15.7L97.1,12.6z"/>
	<path class="st10" d="M140.3,32h-12.7v6.5h14.7v6.6H120V12.6h21.7v6.5h-14.2v6.4h12.7V32z"/>
	<path class="st10" d="M170.7,41.4c-1.3,1.5-2.8,2.6-4.7,3.3c-1.9,0.7-3.8,1-5.8,1c-3,0-5.7-0.7-8.2-2.1c-2.5-1.4-4.1-3.4-5-6
		l6.1-3.5c0.7,1.5,1.6,2.7,2.9,3.5c1.3,0.8,2.7,1.2,4.5,1.2c1.3,0,2.3-0.2,3.1-0.7c0.8-0.5,1.2-1.2,1.2-2.2c0-0.8-0.3-1.4-0.8-1.9
		c-0.5-0.5-1.2-0.9-2-1.2c-0.8-0.3-1.9-0.7-3.4-1.1c-2.1-0.6-3.9-1.2-5.2-1.9c-1.3-0.6-2.5-1.6-3.5-2.8c-1-1.3-1.5-2.9-1.5-4.9
		c0-2.2,0.6-4.1,1.8-5.6s2.7-2.6,4.6-3.4c1.9-0.7,3.9-1.1,6.1-1.1c2.8,0,5.3,0.7,7.5,2c2.1,1.3,3.5,3.2,4.1,5.5l-6.2,3.5
		c-0.5-1.3-1.2-2.4-2.2-3.1c-1-0.7-2.2-1.1-3.6-1.1c-1.2,0-2.2,0.3-3,0.8c-0.8,0.6-1.1,1.3-1.1,2.2c0,0.7,0.3,1.3,0.8,1.7
		c0.5,0.5,1.2,0.9,1.9,1.2c0.8,0.3,1.9,0.7,3.3,1.1c2.2,0.7,4,1.3,5.3,1.9c1.4,0.6,2.5,1.6,3.5,2.9c1,1.3,1.5,2.9,1.5,5
		C172.6,37.9,171.9,39.9,170.7,41.4z"/>
	<g>
		<g>
			<linearGradient id="SVGID_1_" gradientUnits="userSpaceOnUse" x1="53.3899" y1="33.9038" x2="37.7874" y2="47.361">
				<stop  offset="0.3166" style="stop-color:#70A5FF"/>
				<stop  offset="1" style="stop-color:#FFFFFF"/>
			</linearGradient>
			<path class="st2" d="M24.3,53.9l1.4,0.9c0.4,0.2,0.8,0.4,1.3,0.4l9.1,0.4c1.7,0.1,3.4-0.6,4.6-1.8L54.5,40l1.2-11.8
				c0-0.8-0.2-1.5-0.7-2.1l-3.2,0.3c0.1,2.9-4.4,4.4-4.4,4.4"/>
		</g>
		
			<linearGradient id="SVGID_00000104678289603085962020000004871643169069640615_" gradientUnits="userSpaceOnUse" x1="7.6348" y1="33.5068" x2="24.1135" y2="40.7361">
			<stop  offset="0.3166" style="stop-color:#70A5FF"/>
			<stop  offset="0.9132" style="stop-color:#FFFFFF"/>
		</linearGradient>
		<path style="fill:url(#SVGID_00000104678289603085962020000004871643169069640615_);" d="M14.8,28l10.6,10.6
			c0.4,0.4,1,0.7,1.7,0.7l3.8,0L24,46.1c-0.8,0.8-1.8,1.2-2.9,1.2l-0.2,0c-2.1,0-4.1-0.9-5.6-2.3L10.4,40l-2.2-3.2L14.8,28z"/>
		<path class="st10" d="M36.6,17.7l-1.1,1.1l8.3,8.3l0,0l3.6,3.6l0,0c0,0,0,0,0,0l2.9,2.9c1.6,1.9,3.2,4.6,3.1,7.5l1.4-1.4L54.5,40
			c1.2-1.7,1.7-3.7,1.7-5.8l-0.2-6c0-1.6-0.7-3.1-1.8-4.2l-1.6-1.6c0,0-4.7-4.8-4.7-4.8C44.7,14.6,39.7,14.6,36.6,17.7z"/>
		<polygon class="st10" points="34.3,35.6 39.4,30.5 31.6,22.6 26.5,27.7 		"/>
		
			<linearGradient id="SVGID_00000130604905564754461300000008312680505550934963_" gradientUnits="userSpaceOnUse" x1="47.964" y1="0.5513" x2="9.1109" y2="41.9273">
			<stop  offset="0" style="stop-color:#FFFFFF"/>
			<stop  offset="0.3772" style="stop-color:#FFFFFF"/>
		</linearGradient>
		<path style="fill:url(#SVGID_00000130604905564754461300000008312680505550934963_);" d="M51.8,2.3c-0.4-1.2-1.6-1.9-2.8-1.8
			L39,1.4l-9.4,0.8C28.1,2.3,26.7,3,25.7,4L8.1,21.6c-1.1,1.1-1.8,2.6-1.8,4.2l-0.2,7.9c0,0.8,0.2,1.5,0.7,2.1L8,37.4
			c0.5,0.6,1.9,2.1,2.4,2.6l-0.3-1.5c-0.1-2.9,1.2-5.9,2.8-7.8l3-3L35.5,8.2c1.7-1.7,3.9-2.6,6.3-2.6l0,0c4.5,0,8.8,1.8,12,5
			l1.9,3.1L51.8,2.3z"/>
	</g>
	<rect x="104.6" y="12.6" class="st10" width="1.4" height="32.5"/>
	<rect x="107.1" y="12.6" class="st10" width="1.4" height="32.5"/>
	<rect x="109.6" y="12.6" class="st10" width="1.4" height="32.5"/>
	<path class="st10" d="M92.6,22.8l-7-10.2h-1.6l7.5,11c0.1,0.2,0.3,0.3,0.6,0.3c0.1,0,0.3,0,0.4-0.1C92.7,23.5,92.8,23.1,92.6,22.8z
		"/>
	<path class="st10" d="M82.6,12.6h-1.6l8.8,12.8c0.1,0.2,0.3,0.3,0.6,0.3c0.1,0,0.3,0,0.4-0.1c0.3-0.2,0.4-0.6,0.2-0.9L82.6,12.6z"
		/>
	<path class="st10" d="M79.6,12.6h-1.6l10.2,14.9c0.1,0.2,0.3,0.3,0.6,0.3c0.1,0,0.3,0,0.4-0.1c0.3-0.2,0.4-0.6,0.2-0.9L79.6,12.6z"
		/>
</g>
</svg>
